<svg xmlns="http://www.w3.org/2000/svg" xmlns:xlink="http://www.w3.org/1999/xlink" xml:space="preserve" width="303.874" height="228.283" viewBox="0 0 80.4 60.4"><defs><linearGradient id="a"><stop offset="0" style="stop-color:#fc3a4d;stop-opacity:0"/></linearGradient><linearGradient xlink:href="#a" id="b" x1="99.8" x2="125.2" y1="95" y2="95" gradientUnits="userSpaceOnUse"/><linearGradient xlink:href="#a" id="c" x1="99.8" x2="125.2" y1="122.5" y2="122.5" gradientUnits="userSpaceOnUse"/><linearGradient xlink:href="#a" id="d" x1="129.8" x2="170.2" y1="82.5" y2="82.5" gradientUnits="userSpaceOnUse"/><linearGradient xlink:href="#a" id="e" x1="129.8" x2="170.2" y1="105" y2="105" gradientUnits="userSpaceOnUse"/><linearGradient xlink:href="#a" id="f" x1="129.8" x2="170.2" y1="127.5" y2="127.5" gradientUnits="userSpaceOnUse"/><path id="h" d="M491.339 287.244H642.52v49.134H491.339z"/><path id="g" d="M188.976 1099.842h151.181v49.134H188.976z"/></defs><g transform="translate(-94.8 -74.8)"><path d="M95 75h80v60H95z" style="fill:#f0f0f0;fill-opacity:.533211;stroke:#000;stroke-width:.4;stroke-linecap:round;stroke-linejoin:miter;stroke-dasharray:none;stroke-dashoffset:0;stroke-opacity:1;paint-order:normal;stop-color:#000"/><path d="M100 80h25v30h-25z" style="fill:none;fill-opacity:1;stroke:url(#b);stroke-width:.4;stroke-dasharray:none;stroke-opacity:1;paint-order:stroke fill markers;stop-color:#000"/><rect width="25" height="15" x="100" y="115" ry="0" style="fill:none;fill-opacity:1;stroke:url(#c);stroke-width:.4;stroke-dasharray:none;stroke-opacity:1;paint-order:stroke fill markers;stop-color:#000"/><g style="stroke-width:.4;stroke-dasharray:none"><g style="stroke-width:.4;stroke-dasharray:none"><path d="M285.55 202.512s.127-2.852 2.046-3.645c1.92-.794 3.19 2.336 7.513-2.767M285.567 202.313l1.512.154M285.673 201.651l1.42.304M285.886 200.898l1.275.485M286.262 200.034l1.008.807M286.643 199.448l.71.778M287.208 199.044l.345.647M287.874 198.763l.124.544M288.663 198.734v.404M289.365 198.936l.01-.319M290.089 199.035l.045-.586M290.889 199.045l-.16-.728M291.635 198.838l-.341-.771M292.424 198.548l-.602-.91M293.183 198.013l-.81-.98M293.864 197.43l-.947-.941M294.462 196.952l-1.002-1.035M294.888 196.288l-.928-.913" style="fill:none;stroke:#204959;stroke-width:.4;stroke-linecap:butt;stroke-linejoin:miter;stroke-dasharray:none;stroke-opacity:1" transform="rotate(27.962 349.672 -200.097)"/></g><g style="stroke-width:.4;stroke-dasharray:none"><path d="M285.55 202.512s.127-2.852 2.046-3.645c1.92-.794 3.19 2.336 7.513-2.767M285.567 202.313l1.512.154M285.673 201.651l1.42.304M285.886 200.898l1.275.485M286.262 200.034l1.008.807M286.643 199.448l.71.778M287.208 199.044l.345.647M287.874 198.763l.124.544M288.663 198.734v.404M289.365 198.936l.01-.319M290.089 199.035l.045-.586M290.889 199.045l-.16-.728M291.635 198.838l-.341-.771M292.424 198.548l-.602-.91M293.183 198.013l-.81-.98M293.864 197.43l-.947-.941M294.462 196.952l-1.002-1.035M294.888 196.288l-.928-.913" style="fill:none;stroke:#204959;stroke-width:.4;stroke-linecap:butt;stroke-linejoin:miter;stroke-dasharray:none;stroke-opacity:1" transform="rotate(27.962 343.912 -192.183)"/></g><g style="stroke-width:.4;stroke-dasharray:none"><path d="M285.55 202.512s.127-2.852 2.046-3.645c1.92-.794 3.19 2.336 7.513-2.767M285.567 202.313l1.512.154M285.673 201.651l1.42.304M285.886 200.898l1.275.485M286.262 200.034l1.008.807M286.643 199.448l.71.778M287.208 199.044l.345.647M287.874 198.763l.124.544M288.663 198.734v.404M289.365 198.936l.01-.319M290.089 199.035l.045-.586M290.889 199.045l-.16-.728M291.635 198.838l-.341-.771M292.424 198.548l-.602-.91M293.183 198.013l-.81-.98M293.864 197.43l-.947-.941M294.462 196.952l-1.002-1.035M294.888 196.288l-.928-.913" style="fill:none;stroke:#204959;stroke-width:.4;stroke-linecap:butt;stroke-linejoin:miter;stroke-dasharray:none;stroke-opacity:1" transform="rotate(27.962 366.552 -199.824)"/></g><g style="stroke-width:.4;stroke-dasharray:none"><path d="M285.55 202.512s.127-2.852 2.046-3.645c1.92-.794 3.19 2.336 7.513-2.767M285.567 202.313l1.512.154M285.673 201.651l1.42.304M285.886 200.898l1.275.485M286.262 200.034l1.008.807M286.643 199.448l.71.778M287.208 199.044l.345.647M287.874 198.763l.124.544M288.663 198.734v.404M289.365 198.936l.01-.319M290.089 199.035l.045-.586M290.889 199.045l-.16-.728M291.635 198.838l-.341-.771M292.424 198.548l-.602-.91M293.183 198.013l-.81-.98M293.864 197.43l-.947-.941M294.462 196.952l-1.002-1.035M294.888 196.288l-.928-.913" style="fill:none;stroke:#204959;stroke-width:.4;stroke-linecap:butt;stroke-linejoin:miter;stroke-dasharray:none;stroke-opacity:1" transform="rotate(27.962 360.792 -191.91)"/></g></g><path d="M130 76h40v13h-40z" style="fill:none;fill-opacity:1;stroke:url(#d);stroke-width:.4;stroke-dasharray:none;stroke-opacity:1;paint-order:stroke fill markers;stop-color:#000"/><path d="M130 90h40v30h-40z" style="fill:none;fill-opacity:1;stroke:url(#e);stroke-width:.4;stroke-dasharray:none;stroke-opacity:1;paint-order:stroke fill markers;stop-color:#000"/><path d="M238.119 98.843h25v22h-25z" style="fill:#f9fdfd;fill-opacity:1;stroke:#000;stroke-width:.4;stroke-linecap:round;stroke-linejoin:miter;stroke-dasharray:none;stroke-dashoffset:0;stroke-opacity:1;paint-order:normal;stop-color:#000" transform="translate(-104.12 -1.843)"/><path d="M238.12 106.176h25M238.12 113.51h25" style="fill:none;stroke:#000;stroke-width:.265;stroke-linecap:butt;stroke-linejoin:miter;stroke-dasharray:.265,.265;stroke-dashoffset:0;stroke-opacity:1" transform="translate(-104.12 -1.843)"/><path d="M237.119 99.843h25v22h-25z" style="fill:#cab2d6;fill-opacity:1;stroke:#000;stroke-width:.4;stroke-linecap:round;stroke-linejoin:miter;stroke-dasharray:none;stroke-dashoffset:0;stroke-opacity:1;paint-order:normal;stop-color:#000" transform="translate(-104.12 -1.843)"/><path d="M264.119 98.843h7v22h-7z" style="fill:#f9fdfd;fill-opacity:1;stroke:#000;stroke-width:.4;stroke-linecap:round;stroke-linejoin:miter;stroke-dasharray:none;stroke-dashoffset:0;stroke-opacity:1;paint-order:normal;stop-color:#000" transform="translate(-104.12 -1.843)"/><path d="M238.119 91.843h25v6h-25z" style="fill:#b2df8a;fill-opacity:1;stroke:#000;stroke-width:.4;stroke-linecap:round;stroke-linejoin:miter;stroke-dasharray:none;stroke-dashoffset:0;stroke-opacity:1;paint-order:normal;stop-color:#000" transform="translate(-104.12 -1.843)"/><path d="M237.12 107.176h25M237.12 114.51h25" style="fill:none;stroke:#000;stroke-width:.265;stroke-linecap:butt;stroke-linejoin:miter;stroke-dasharray:.265,.265;stroke-dashoffset:0;stroke-opacity:1" transform="translate(-104.12 -1.843)"/><text xml:space="preserve" x="249.775" y="104.609" style="font-size:4.23333px;line-height:1.25;font-family:&quot;Open Sans&quot;;-inkscape-font-specification:&quot;Open Sans&quot;;text-align:center;letter-spacing:0;text-anchor:middle;fill:#000;fill-opacity:.445114;stroke-width:.264583" transform="translate(-104.12 -1.843)"><tspan x="249.775" y="104.609" style="font-size:4.23333px;text-align:center;text-anchor:middle;fill:#000;fill-opacity:.445114;stroke-width:.264583">sample 1</tspan></text><text xml:space="preserve" x="249.594" y="111.943" style="font-size:4.23333px;line-height:1.25;font-family:&quot;Open Sans&quot;;-inkscape-font-specification:&quot;Open Sans&quot;;text-align:center;letter-spacing:0;text-anchor:middle;fill:#000;fill-opacity:.445114;stroke-width:.264583" transform="translate(-104.12 -1.843)"><tspan x="249.594" y="111.943" style="font-size:4.23333px;text-align:center;text-anchor:middle;fill:#000;fill-opacity:.445114;stroke-width:.264583">sample 2</tspan></text><text xml:space="preserve" x="249.6" y="119.276" style="font-size:4.23333px;line-height:1.25;font-family:&quot;Open Sans&quot;;-inkscape-font-specification:&quot;Open Sans&quot;;text-align:center;letter-spacing:0;text-anchor:middle;fill:#000;fill-opacity:.445114;stroke-width:.264583" transform="translate(-104.12 -1.843)"><tspan x="249.6" y="119.276" style="font-size:4.23333px;text-align:center;text-anchor:middle;fill:#000;fill-opacity:.445114;stroke-width:.264583">sample 3</tspan></text><path d="M237.12 99.843h25M237.12 121.843h25M264.12 106.176h7M264.12 113.51h7M264.12 98.843h7M264.12 120.843h7" style="fill:none;stroke:#000;stroke-width:.265;stroke-linecap:butt;stroke-linejoin:miter;stroke-dasharray:.265,.265;stroke-dashoffset:0;stroke-opacity:1" transform="translate(-104.12 -1.843)"/><path d="M130 121h40v13h-40z" style="fill:none;fill-opacity:1;stroke:url(#f);stroke-width:.4;stroke-dasharray:none;stroke-opacity:1;paint-order:stroke fill markers;stop-color:#000"/><text xml:space="preserve" x="60.749" style="font-size:21.3333px;line-height:1.1;font-family:&quot;Open Sans&quot;;-inkscape-font-specification:&quot;Open Sans&quot;;letter-spacing:0;white-space:pre;shape-inside:url(#g);display:inline;fill:#6a3d9a;fill-opacity:1" transform="matrix(.26458 0 0 .26458 80 -170.562)"><tspan x="199.594" y="1117.144"><tspan style="text-align:center;baseline-shift:baseline;text-anchor:middle;white-space:normal;opacity:1;vector-effect:none;stroke-width:.999999;stop-color:#000;stop-opacity:1">+ normalized </tspan></tspan><tspan x="240.224" y="1140.611"><tspan style="text-align:center;baseline-shift:baseline;text-anchor:middle;white-space:normal;opacity:1;vector-effect:none;stroke-width:.999999;stop-color:#000;stop-opacity:1">layer</tspan></tspan></text><g style="stroke-width:1.99937" transform="matrix(.49734 0 0 .503 59.416 6.835)"><path d="M107.955 148.292v21.462c0 7.676.662 9.498 1.45 12.43.788 2.93 3.85 15.173 4.497 17.65.647 2.477 1.855 2.433 2.503 2.433.648 0 1.856.044 2.503-2.433.646-2.477 3.709-14.72 4.497-17.65.787-2.932 1.45-4.754 1.45-12.43v-21.462" style="fill:#ebf2f2;fill-opacity:1;stroke:#5d666e;stroke-width:.799747;stroke-linecap:butt;stroke-linejoin:miter;stroke-dasharray:none;stroke-opacity:1;paint-order:normal"/><path d="M109.148 163.48v11.279c0 .598.188 2.927.59 4.45 1.859 7.055 5.233 20.533 5.449 20.986.262.551.817.787 1.218.787.4 0 .956-.236 1.218-.787.216-.453 3.59-13.931 5.45-20.986.4-1.523.577-3.852.589-4.45v-11.278z" style="mix-blend-mode:darken;fill:#c6e7f5;fill-opacity:1;stroke:#2b96b8;stroke-width:.799747;stroke-linecap:butt;stroke-linejoin:miter;stroke-dasharray:none;stroke-opacity:1"/><path d="M123.385 152.202h-3.75M123.385 163.48h-3.75M123.385 174.759h-3.75" style="fill:none;stroke:#4c4e4e;stroke-width:.799747;stroke-linecap:round;stroke-linejoin:round;stroke-dasharray:none;stroke-opacity:.581033"/><path d="M107.955 148.292v21.462c0 7.676.662 9.498 1.45 12.43.788 2.93 3.85 15.173 4.497 17.65.647 2.477 1.855 2.433 2.503 2.433.648 0 1.856.044 2.503-2.433.646-2.477 3.709-14.72 4.497-17.65.787-2.932 1.45-4.754 1.45-12.43v-21.462" style="fill:none;fill-opacity:1;stroke:#5d666e;stroke-width:.799747;stroke-linecap:butt;stroke-linejoin:miter;stroke-dasharray:none;stroke-opacity:1;paint-order:normal"/><rect width="18.375" height="2.422" x="107.217" y="146.265" rx=".316" ry=".204" style="opacity:1;fill:#ebf2f2;fill-opacity:1;stroke:#5d666e;stroke-width:.799747;stroke-dasharray:none;stroke-opacity:1;paint-order:normal;stop-color:#000"/><rect width="21.77" height="2.425" x="105.52" y="144.344" rx=".912" ry="1.039" style="opacity:1;fill:#ebf2f2;fill-opacity:1;stroke:#5d666e;stroke-width:.799747;stroke-dasharray:none;stroke-opacity:1;paint-order:normal;stop-color:#000"/></g><path d="M67.495 173.558c-.326-.431-.999-.543-1.457-.267-.59.432-.396 1.511.312 1.708a.905.905 0 0 0 1.09-.43c.165-.3.26-.705.055-1.01zM65.045 169.152c-.537.067-.97.593-.96 1.128.08.727 1.11 1.099 1.635.584a.905.905 0 0 0 .172-1.159c-.177-.293-.48-.578-.847-.553z" style="fill:#e5f3f7;fill-opacity:1;stroke:#204959;stroke-width:.4;stroke-linecap:butt;stroke-linejoin:miter;stroke-dasharray:none;stroke-opacity:1" transform="translate(51.844 -75.19)"/><g style="stroke-width:1.99937" transform="matrix(.49734 0 0 .503 54.608 7.828)"><path d="M107.955 148.292v21.462c0 7.676.662 9.498 1.45 12.43.788 2.93 3.85 15.173 4.497 17.65.647 2.477 1.855 2.433 2.503 2.433.648 0 1.856.044 2.503-2.433.646-2.477 3.709-14.72 4.497-17.65.787-2.932 1.45-4.754 1.45-12.43v-21.462" style="fill:#ebf2f2;fill-opacity:1;stroke:#5d666e;stroke-width:.799747;stroke-linecap:butt;stroke-linejoin:miter;stroke-dasharray:none;stroke-opacity:1;paint-order:normal"/><path d="M109.148 163.48v11.279c0 .598.188 2.927.59 4.45 1.859 7.055 5.233 20.533 5.449 20.986.262.551.817.787 1.218.787.4 0 .956-.236 1.218-.787.216-.453 3.59-13.931 5.45-20.986.4-1.523.577-3.852.589-4.45v-11.278z" style="mix-blend-mode:darken;fill:#c6e7f5;fill-opacity:1;stroke:#2b96b8;stroke-width:.799747;stroke-linecap:butt;stroke-linejoin:miter;stroke-dasharray:none;stroke-opacity:1"/><path d="M123.385 152.202h-3.75M123.385 163.48h-3.75M123.385 174.759h-3.75" style="fill:none;stroke:#4c4e4e;stroke-width:.799747;stroke-linecap:round;stroke-linejoin:round;stroke-dasharray:none;stroke-opacity:.581033"/><path d="M107.955 148.292v21.462c0 7.676.662 9.498 1.45 12.43.788 2.93 3.85 15.173 4.497 17.65.647 2.477 1.855 2.433 2.503 2.433.648 0 1.856.044 2.503-2.433.646-2.477 3.709-14.72 4.497-17.65.787-2.932 1.45-4.754 1.45-12.43v-21.462" style="fill:none;fill-opacity:1;stroke:#5d666e;stroke-width:.799747;stroke-linecap:butt;stroke-linejoin:miter;stroke-dasharray:none;stroke-opacity:1;paint-order:normal"/><rect width="18.375" height="2.422" x="107.217" y="146.265" rx=".316" ry=".204" style="opacity:1;fill:#ebf2f2;fill-opacity:1;stroke:#5d666e;stroke-width:.799747;stroke-dasharray:none;stroke-opacity:1;paint-order:normal;stop-color:#000"/><rect width="21.77" height="2.425" x="105.52" y="144.344" rx=".912" ry="1.039" style="opacity:1;fill:#ebf2f2;fill-opacity:1;stroke:#5d666e;stroke-width:.799747;stroke-dasharray:none;stroke-opacity:1;paint-order:normal;stop-color:#000"/></g><path d="M66.312 166.94c-.326-.43-1-.542-1.457-.266-.59.432-.396 1.51.312 1.707a.905.905 0 0 0 1.09-.43c.165-.3.26-.705.055-1.01zM66.86 171.24c-.537.066-.97.593-.96 1.128.079.726 1.11 1.098 1.634.583a.905.905 0 0 0 .173-1.158c-.178-.294-.48-.578-.848-.553zM66.084 175.483c-.226-.49-.86-.744-1.366-.572-.668.296-.71 1.392-.06 1.735a.905.905 0 0 0 1.157-.188c.225-.258.404-.633.27-.975z" style="fill:#e5f3f7;fill-opacity:1;stroke:#204959;stroke-width:.4;stroke-linecap:butt;stroke-linejoin:miter;stroke-dasharray:none;stroke-opacity:1" transform="translate(47.036 -74.198)"/><g style="stroke-width:1.99937" transform="matrix(.49734 0 0 .503 49.8 8.821)"><path d="M107.955 148.292v21.462c0 7.676.662 9.498 1.45 12.43.788 2.93 3.85 15.173 4.497 17.65.647 2.477 1.855 2.433 2.503 2.433.648 0 1.856.044 2.503-2.433.646-2.477 3.709-14.72 4.497-17.65.787-2.932 1.45-4.754 1.45-12.43v-21.462" style="fill:#ebf2f2;fill-opacity:1;stroke:#5d666e;stroke-width:.799747;stroke-linecap:butt;stroke-linejoin:miter;stroke-dasharray:none;stroke-opacity:1;paint-order:normal"/><path d="M109.148 163.48v11.279c0 .598.188 2.927.59 4.45 1.859 7.055 5.233 20.533 5.449 20.986.262.551.817.787 1.218.787.4 0 .956-.236 1.218-.787.216-.453 3.59-13.931 5.45-20.986.4-1.523.577-3.852.589-4.45v-11.278z" style="mix-blend-mode:darken;fill:#c6e7f5;fill-opacity:1;stroke:#2b96b8;stroke-width:.799747;stroke-linecap:butt;stroke-linejoin:miter;stroke-dasharray:none;stroke-opacity:1"/><path d="M123.385 152.202h-3.75M123.385 163.48h-3.75M123.385 174.759h-3.75" style="fill:none;stroke:#4c4e4e;stroke-width:.799747;stroke-linecap:round;stroke-linejoin:round;stroke-dasharray:none;stroke-opacity:.581033"/><path d="M107.955 148.292v21.462c0 7.676.662 9.498 1.45 12.43.788 2.93 3.85 15.173 4.497 17.65.647 2.477 1.855 2.433 2.503 2.433.648 0 1.856.044 2.503-2.433.646-2.477 3.709-14.72 4.497-17.65.787-2.932 1.45-4.754 1.45-12.43v-21.462" style="fill:none;fill-opacity:1;stroke:#5d666e;stroke-width:.799747;stroke-linecap:butt;stroke-linejoin:miter;stroke-dasharray:none;stroke-opacity:1;paint-order:normal"/><rect width="18.375" height="2.422" x="107.217" y="146.265" rx=".316" ry=".204" style="opacity:1;fill:#ebf2f2;fill-opacity:1;stroke:#5d666e;stroke-width:.799747;stroke-dasharray:none;stroke-opacity:1;paint-order:normal;stop-color:#000"/><rect width="21.77" height="2.425" x="105.52" y="144.344" rx=".912" ry="1.039" style="opacity:1;fill:#ebf2f2;fill-opacity:1;stroke:#5d666e;stroke-width:.799747;stroke-dasharray:none;stroke-opacity:1;paint-order:normal;stop-color:#000"/></g><path d="M67.685 166.917c-.326-.432-.999-.543-1.457-.268-.59.432-.396 1.512.312 1.708a.905.905 0 0 0 1.09-.43c.165-.3.26-.705.055-1.01zM65.71 173.821c-.537.067-.97.594-.96 1.128.079.727 1.11 1.1 1.634.584a.905.905 0 0 0 .173-1.159c-.178-.293-.48-.577-.848-.553z" style="fill:#e5f3f7;fill-opacity:1;stroke:#204959;stroke-width:.4;stroke-linecap:butt;stroke-linejoin:miter;stroke-dasharray:none;stroke-opacity:1" transform="translate(42.228 -73.205)"/><text xml:space="preserve" x="67.286" style="font-size:21.3333px;line-height:1.1;font-family:&quot;Open Sans&quot;;-inkscape-font-specification:&quot;Open Sans&quot;;letter-spacing:0;white-space:pre;shape-inside:url(#h);display:inline;fill:#33a02c;fill-opacity:1" transform="matrix(.26458 0 0 .26458 0 1.454)"><tspan x="504.283" y="304.546"><tspan style="text-align:center;text-anchor:middle">+ feature QC </tspan></tspan><tspan x="543.288" y="328.013"><tspan style="text-align:center;text-anchor:middle">stats</tspan></tspan></text></g></svg>