<svg xmlns="http://www.w3.org/2000/svg" xmlns:xlink="http://www.w3.org/1999/xlink" xml:space="preserve" width="189.036" height="179.712" viewBox="0 0 50.016 47.549"><defs><radialGradient xlink:href="#a" id="d" cx="325.16" cy="204.426" r="20.717" fx="325.16" fy="204.426" gradientTransform="matrix(1.18604 0 0 1.27302 -219.024 -91.362)" gradientUnits="userSpaceOnUse"/><radialGradient xlink:href="#b" id="e" cx="326.698" cy="199.296" r="9.597" fx="326.698" fy="199.296" gradientTransform="matrix(1 0 0 1.03342 -158.533 -42.21)" gradientUnits="userSpaceOnUse"/><radialGradient xlink:href="#c" id="f" cx="182.681" cy="-303.369" r="3.033" fx="182.681" fy="-303.369" gradientTransform="matrix(-.68961 .72418 -.76823 -.73155 41.707 -197.673)" gradientUnits="userSpaceOnUse"/><radialGradient xlink:href="#c" id="g" cx="182.681" cy="-303.369" r="3.033" fx="182.681" fy="-303.369" gradientTransform="matrix(-.8616 .50758 -.53845 -.91401 148.644 -218.618)" gradientUnits="userSpaceOnUse"/><linearGradient id="c"><stop offset="0" style="stop-color:#dde7e7;stop-opacity:1"/><stop offset=".501" style="stop-color:#8fd3e3;stop-opacity:1"/><stop offset="1" style="stop-color:#c2e5f0;stop-opacity:1"/></linearGradient><linearGradient id="b"><stop offset="0" style="stop-color:#dde7e7;stop-opacity:1"/><stop offset=".588" style="stop-color:#8fd3e3;stop-opacity:1"/><stop offset="1" style="stop-color:#469dbe;stop-opacity:1"/></linearGradient><linearGradient id="a"><stop offset="0" style="stop-color:#eff6f6;stop-opacity:1"/><stop offset=".588" style="stop-color:#c6e7f2;stop-opacity:1"/><stop offset="1" style="stop-color:#84c1d7;stop-opacity:1"/></linearGradient></defs><g style="stroke-width:.4;stroke-dasharray:none"><path d="M75.152 149.731h49.616v47.149H75.152z" style="fill:#f5fbfd;fill-opacity:1;stroke:#000;stroke-width:.4;stroke-linecap:round;stroke-linejoin:miter;stroke-dasharray:none;stroke-dashoffset:0;stroke-opacity:1;paint-order:normal;stop-color:#000" transform="translate(-74.952 -149.53)"/><g style="stroke-width:.4;stroke-dasharray:none"><path d="M170.494 148.395c-11.375-.737-22.421 8.454-24.33 19.556-1.23 15.357 18.648 27.135 31.535 18.546 7.994-4.484 11.566-14.833 8.15-23.304-2.512-6.772-7.661-13.86-15.355-14.798z" style="fill:url(#d);fill-opacity:1;stroke:#204959;stroke-width:.4;stroke-linecap:butt;stroke-linejoin:miter;stroke-dasharray:none;stroke-opacity:1" transform="translate(-141.619 -144.844)"/><g style="stroke-width:.4;stroke-dasharray:none"><path d="m152.49 151.375.159-1.994-1.463-1.715M152.219 149.38l-.156 1.961M154.978 149.253l-1.993-.158-1.463-1.715M153.052 148.67l1.96.156" style="fill:none;stroke:#204959;stroke-width:.3;stroke-linecap:butt;stroke-linejoin:miter;stroke-dasharray:none;stroke-opacity:1" transform="rotate(-94.476 30.34 130.031)"/></g><path d="M170.74 154.447c-4.712-1.917-9.592 3.08-11.095 7.716-2.273 4.333-.013 11.287 5.514 11.234 4.31.26 10.518-.015 12.035-4.969 1.493-5.403-1.742-12.064-6.454-13.98z" style="fill:url(#e);fill-opacity:1;stroke:#204959;stroke-width:.4;stroke-linecap:butt;stroke-linejoin:miter;stroke-dasharray:none;stroke-opacity:1" transform="translate(-141.619 -144.844)"/><g style="stroke-width:.92049;stroke-dasharray:none" transform="translate(-152.678 -53.938) scale(.43455)"><path d="M409.865 181.467c.092.529-.286 1.587-1.57 1.709" class="cls-37" style="fill:none;stroke:#204959;stroke-width:.92049;stroke-miterlimit:10;stroke-dasharray:none;stroke-opacity:1"/><path d="m411.67 171.045-2.768.23c-.738.06-1.143 2.418-.905 5.262.238 2.845 1.026 5.099 1.765 5.028l2.765-.23" class="cls-34" style="fill:#dfe1e1;stroke:#2d292b;stroke-width:.92049;stroke-miterlimit:10;stroke-dasharray:none"/><ellipse cx="396.027" cy="209.849" class="cls-34" rx="1.339" ry="5.167" style="fill:#dfe1e1;stroke:#2d292b;stroke-width:.92049;stroke-miterlimit:10;stroke-dasharray:none" transform="rotate(-4.77)"/><path d="M410.958 181.477c.029.334-.4.368-.606.193-.363-.304-1.019-1.836-1.466-5.19-.413-3.094-.156-4.94.243-5.414.265-.312.574-.201.6.132" class="cls-38" style="fill:none;stroke:#204959;stroke-width:.92049;stroke-miterlimit:10;stroke-dasharray:none;stroke-opacity:1"/><path d="M416.778 181.022c.016.167-.844 1.588-1.307 1.633-3.635.43-4.918-3.149-5.347-6.282-.423-3.09-.167-5.172.429-5.51a.288.288 0 0 1 .452.25" class="cls-37" style="fill:none;stroke:#204959;stroke-width:.92049;stroke-miterlimit:10;stroke-dasharray:none;stroke-opacity:1"/><path d="m418.731 170.703-2.767.23c-.736.061-1.143 2.419-.905 5.263s1.026 5.101 1.764 5.027l2.765-.23" class="cls-34" style="fill:#dfe1e1;stroke:#2d292b;stroke-width:.92049;stroke-miterlimit:10;stroke-dasharray:none"/><ellipse cx="403.087" cy="210.108" class="cls-34" rx="1.339" ry="5.167" style="fill:#dfe1e1;stroke:#2d292b;stroke-width:.92049;stroke-miterlimit:10;stroke-dasharray:none" transform="rotate(-4.77)"/><path d="M418.02 181.147c.026.333-.403.367-.61.193-.362-.305-1.018-1.837-1.465-5.191-.413-3.093-.156-4.94.243-5.414.265-.312.575-.2.601.132" class="cls-36" style="fill:none;stroke:#204959;stroke-width:.92049;stroke-miterlimit:10;stroke-dasharray:none;stroke-opacity:1"/><path d="M422.589 180.97c.092.528-.286 1.587-1.57 1.708-2.116.217-3.41-3.516-3.838-6.649-.424-3.09-.167-5.172.428-5.51a.288.288 0 0 1 .453.25" class="cls-39" style="fill:none;stroke:#204959;stroke-width:.92049;stroke-miterlimit:10;stroke-dasharray:none;stroke-opacity:1"/><path d="m424.425 170.65-2.765.23c-.738.062-1.143 2.416-.905 5.26.238 2.845 1.027 5.102 1.765 5.04l2.765-.23" class="cls-34" style="fill:#dfe1e1;stroke:#2d292b;stroke-width:.92049;stroke-miterlimit:10;stroke-dasharray:none"/><ellipse cx="408.768" cy="210.516" class="cls-34" rx="1.339" ry="5.167" style="fill:#dfe1e1;stroke:#2d292b;stroke-width:.92049;stroke-miterlimit:10;stroke-dasharray:none" transform="rotate(-4.77)"/><path d="M423.71 181.08c.03.334-.402.37-.608.196-.36-.307-1.016-1.836-1.466-5.194-.41-3.09-.156-4.937.246-5.413.265-.31.572-.201.6.132" class="cls-39" style="fill:none;stroke:#204959;stroke-width:.92049;stroke-miterlimit:10;stroke-dasharray:none;stroke-opacity:1"/><path d="M426.716 182.636c-2.117.217-3.41-3.516-3.839-6.649-.423-3.09-.17-5.172.429-5.508a.288.288 0 0 1 .452.248" class="cls-37" style="fill:none;stroke:#204959;stroke-width:.92049;stroke-miterlimit:10;stroke-dasharray:none;stroke-opacity:1"/></g><g style="stroke-width:.4;stroke-dasharray:none"><path d="M285.55 202.512s.127-2.852 2.046-3.645c1.92-.794 3.19 2.336 7.513-2.767M285.567 202.313l1.512.154M285.673 201.651l1.42.304M285.886 200.898l1.275.485M286.262 200.034l1.008.807M286.643 199.448l.71.778M287.208 199.044l.345.647M287.874 198.763l.124.544M288.663 198.734v.404M289.365 198.936l.01-.319M290.089 199.035l.045-.586M290.889 199.045l-.16-.728M291.635 198.838l-.341-.771M292.424 198.548l-.602-.91M293.183 198.013l-.81-.98M293.864 197.43l-.947-.941M294.462 196.952l-1.002-1.035M294.888 196.288l-.928-.913" style="fill:none;stroke:#204959;stroke-width:.4;stroke-linecap:butt;stroke-linejoin:miter;stroke-dasharray:none;stroke-opacity:1" transform="translate(-265.893 -182.22)"/></g><g style="stroke-width:.4;stroke-dasharray:none"><path d="M285.55 202.512s.127-2.852 2.046-3.645c1.92-.794 3.19 2.336 7.513-2.767M285.567 202.313l1.512.154M285.673 201.651l1.42.304M285.886 200.898l1.275.485M286.262 200.034l1.008.807M286.643 199.448l.71.778M287.208 199.044l.345.647M287.874 198.763l.124.544M288.663 198.734v.404M289.365 198.936l.01-.319M290.089 199.035l.045-.586M290.889 199.045l-.16-.728M291.635 198.838l-.341-.771M292.424 198.548l-.602-.91M293.183 198.013l-.81-.98M293.864 197.43l-.947-.941M294.462 196.952l-1.002-1.035M294.888 196.288l-.928-.913" style="fill:none;stroke:#204959;stroke-width:.4;stroke-linecap:butt;stroke-linejoin:miter;stroke-dasharray:none;stroke-opacity:1" transform="rotate(27.962 487.573 -425.199)"/></g><g style="stroke-width:.4;stroke-dasharray:none"><path d="M285.55 202.512s.127-2.852 2.046-3.645c1.92-.794 3.19 2.336 7.513-2.767M285.567 202.313l1.512.154M285.673 201.651l1.42.304M285.886 200.898l1.275.485M286.262 200.034l1.008.807M286.643 199.448l.71.778M287.208 199.044l.345.647M287.874 198.763l.124.544M288.663 198.734v.404M289.365 198.936l.01-.319M290.089 199.035l.045-.586M290.889 199.045l-.16-.728M291.635 198.838l-.341-.771M292.424 198.548l-.602-.91M293.183 198.013l-.81-.98M293.864 197.43l-.947-.941M294.462 196.952l-1.002-1.035M294.888 196.288l-.928-.913" style="fill:none;stroke:#204959;stroke-width:.4;stroke-linecap:butt;stroke-linejoin:miter;stroke-dasharray:none;stroke-opacity:1" transform="rotate(27.962 481.813 -417.285)"/></g><path d="M151.315 159.78s-.957-.871-1.918-1.421a1.768 1.768 0 1 1 1.231-1.27c.58.944 1.48 1.875 1.48 1.875" style="fill:url(#f);fill-opacity:1;stroke:#204959;stroke-width:.4;stroke-linecap:round;stroke-linejoin:round;stroke-dasharray:none;stop-color:#000" transform="translate(-141.619 -144.844)"/><path d="m146.382 156.315.158-1.993-1.462-1.715M146.11 154.321l-.156 1.96M148.87 154.194l-1.994-.159-1.462-1.715M146.944 153.61l1.96.157" style="fill:none;stroke:#204959;stroke-width:.3;stroke-linecap:butt;stroke-linejoin:miter;stroke-dasharray:none;stroke-opacity:1" transform="translate(-141.349 -144.594)"/><path d="m152.49 151.375.159-1.994-1.463-1.715M152.219 149.38l-.156 1.961M154.978 149.253l-1.993-.158-1.463-1.715M153.052 148.67l1.96.156" style="fill:none;stroke:#204959;stroke-width:.3;stroke-linecap:butt;stroke-linejoin:miter;stroke-dasharray:none;stroke-opacity:1" transform="translate(-141.619 -144.836)"/><path d="M156.143 155.187s-.682-1.1-1.456-1.893a1.768 1.768 0 1 1 1.532-.883c.299 1.066.91 2.208.91 2.208" style="fill:url(#g);fill-opacity:1;stroke:#204959;stroke-width:.4;stroke-linecap:round;stroke-linejoin:round;stroke-dasharray:none;stop-color:#000" transform="translate(-141.619 -144.844)"/><g transform="rotate(56.219 61.737 -35.698)"><path d="M90.336 2.998v2.286h.078a.526.526 0 0 1 .047-.407.275.275 0 0 1 .139-.117V2.998ZM90.726 2.997V4.76l.027.011.002.001.003.002a.254.254 0 0 1 .01.006c.004.001.007.004.01.006l.003.002.007.004.005.004a.27.27 0 0 1 .01.007l.003.003a.294.294 0 0 1 .009.008l.003.003.006.005.005.006.003.003a.311.311 0 0 1 .007.008l.008.01.002.003.01.012.008.013.005.007.004.007.003.006a.424.424 0 0 1 .011.022l.007.014a.199.199 0 0 1 .003.008l.003.007.003.008.003.007.002.008.005.016a.469.469 0 0 1 .006.025l.002.008.002.008.001.008.002.01a.534.534 0 0 1 .004.033l.002.018V5.168l-.001.014-.001.004c0 .009-.001.017-.003.025l-.001.01-.002.01a.478.478 0 0 1-.008.036l-.001.003a.347.347 0 0 1-.004.014h.076V2.997ZM90.336 5.449v2.287h.264V5.505a.243.243 0 0 1-.09-.056zM90.818 5.449a.243.243 0 0 1-.091.056v2.231h.263V5.449Z" style="color:#000;fill:#204959;stroke-width:.4;stroke-dasharray:none;-inkscape-stroke:none"/><ellipse cx="90.664" cy="5.132" rx=".192" ry=".302" style="fill:#204959;fill-opacity:1;stroke:none;stroke-width:.264999;stroke-dasharray:none;stroke-opacity:1;paint-order:stroke fill markers;stop-color:#000"/></g></g></g><path d="M247.184-34.281H296.8v47.149h-49.616z" style="fill:#fdfdfd;fill-opacity:.745098;stroke:#000;stroke-width:.4;stroke-linecap:round;stroke-linejoin:miter;stroke-dasharray:none;stroke-dashoffset:0;stroke-opacity:1;paint-order:normal;stop-color:#000" transform="translate(-246.984 34.48)"/><g style="stroke-width:.92049;stroke-dasharray:none" transform="translate(-152.678 -53.938) scale(.43455)"><path d="M409.865 181.467c.092.529-.286 1.587-1.57 1.709" class="cls-37" style="fill:none;stroke:#204959;stroke-width:.92049;stroke-miterlimit:10;stroke-dasharray:none;stroke-opacity:1"/><path d="m411.67 171.045-2.768.23c-.738.06-1.143 2.418-.905 5.262.238 2.845 1.026 5.099 1.765 5.028l2.765-.23" class="cls-34" style="fill:#dfe1e1;stroke:#2d292b;stroke-width:.92049;stroke-miterlimit:10;stroke-dasharray:none"/><ellipse cx="396.027" cy="209.849" class="cls-34" rx="1.339" ry="5.167" style="fill:#dfe1e1;stroke:#2d292b;stroke-width:.92049;stroke-miterlimit:10;stroke-dasharray:none" transform="rotate(-4.77)"/><path d="M410.958 181.477c.029.334-.4.368-.606.193-.363-.304-1.019-1.836-1.466-5.19-.413-3.094-.156-4.94.243-5.414.265-.312.574-.201.6.132" class="cls-38" style="fill:none;stroke:#204959;stroke-width:.92049;stroke-miterlimit:10;stroke-dasharray:none;stroke-opacity:1"/><path d="M416.778 181.022c.016.167-.844 1.588-1.307 1.633-3.635.43-4.918-3.149-5.347-6.282-.423-3.09-.167-5.172.429-5.51a.288.288 0 0 1 .452.25" class="cls-37" style="fill:none;stroke:#204959;stroke-width:.92049;stroke-miterlimit:10;stroke-dasharray:none;stroke-opacity:1"/><path d="m418.731 170.703-2.767.23c-.736.061-1.143 2.419-.905 5.263s1.026 5.101 1.764 5.027l2.765-.23" class="cls-34" style="fill:#dfe1e1;stroke:#2d292b;stroke-width:.92049;stroke-miterlimit:10;stroke-dasharray:none"/><ellipse cx="403.087" cy="210.108" class="cls-34" rx="1.339" ry="5.167" style="fill:#dfe1e1;stroke:#2d292b;stroke-width:.92049;stroke-miterlimit:10;stroke-dasharray:none" transform="rotate(-4.77)"/><path d="M418.02 181.147c.026.333-.403.367-.61.193-.362-.305-1.018-1.837-1.465-5.191-.413-3.093-.156-4.94.243-5.414.265-.312.575-.2.601.132" class="cls-36" style="fill:none;stroke:#204959;stroke-width:.92049;stroke-miterlimit:10;stroke-dasharray:none;stroke-opacity:1"/><path d="M422.589 180.97c.092.528-.286 1.587-1.57 1.708-2.116.217-3.41-3.516-3.838-6.649-.424-3.09-.167-5.172.428-5.51a.288.288 0 0 1 .453.25" class="cls-39" style="fill:none;stroke:#204959;stroke-width:.92049;stroke-miterlimit:10;stroke-dasharray:none;stroke-opacity:1"/><path d="m424.425 170.65-2.765.23c-.738.062-1.143 2.416-.905 5.26.238 2.845 1.027 5.102 1.765 5.04l2.765-.23" class="cls-34" style="fill:#dfe1e1;stroke:#2d292b;stroke-width:.92049;stroke-miterlimit:10;stroke-dasharray:none"/><ellipse cx="408.768" cy="210.516" class="cls-34" rx="1.339" ry="5.167" style="fill:#dfe1e1;stroke:#2d292b;stroke-width:.92049;stroke-miterlimit:10;stroke-dasharray:none" transform="rotate(-4.77)"/><path d="M423.71 181.08c.03.334-.402.37-.608.196-.36-.307-1.016-1.836-1.466-5.194-.41-3.09-.156-4.937.246-5.413.265-.31.572-.201.6.132" class="cls-39" style="fill:none;stroke:#204959;stroke-width:.92049;stroke-miterlimit:10;stroke-dasharray:none;stroke-opacity:1"/><path d="M426.716 182.636c-2.117.217-3.41-3.516-3.839-6.649-.423-3.09-.17-5.172.429-5.508a.288.288 0 0 1 .452.248" class="cls-37" style="fill:none;stroke:#204959;stroke-width:.92049;stroke-miterlimit:10;stroke-dasharray:none;stroke-opacity:1"/></g></svg>