<svg xmlns="http://www.w3.org/2000/svg" xmlns:xlink="http://www.w3.org/1999/xlink" xml:space="preserve" width="303.874" height="228.283" viewBox="0 0 80.4 60.4"><defs><linearGradient id="a"><stop offset="0" style="stop-color:#fc3a4d;stop-opacity:0"/></linearGradient><linearGradient xlink:href="#a" id="b" x1="14.8" x2="40.2" y1="95" y2="95" gradientUnits="userSpaceOnUse"/><linearGradient xlink:href="#a" id="c" x1="14.8" x2="40.2" y1="122.5" y2="122.5" gradientUnits="userSpaceOnUse"/><linearGradient xlink:href="#a" id="d" x1="44.8" x2="85.2" y1="82.5" y2="82.5" gradientUnits="userSpaceOnUse"/><linearGradient xlink:href="#a" id="e" x1="44.8" x2="85.2" y1="105" y2="105" gradientUnits="userSpaceOnUse"/><linearGradient xlink:href="#a" id="f" x1="44.8" x2="85.2" y1="127.5" y2="127.5" gradientUnits="userSpaceOnUse"/><path id="g" d="M188.976 929.764h151.181v49.134H188.976z"/><path id="h" d="M188.976 1099.842h151.181v49.134H188.976z"/></defs><g transform="translate(-9.8 -74.8)"><path d="M10 75h80v60H10z" style="fill:#f0f0f0;fill-opacity:.533211;stroke:#000;stroke-width:.4;stroke-linecap:round;stroke-linejoin:miter;stroke-dasharray:none;stroke-dashoffset:0;stroke-opacity:1;paint-order:normal;stop-color:#000"/><path d="M15 80h25v30H15z" style="fill:none;fill-opacity:1;stroke:url(#b);stroke-width:.4;stroke-dasharray:none;stroke-opacity:1;paint-order:stroke fill markers;stop-color:#000"/><rect width="25" height="15" x="15" y="115" ry="0" style="fill:none;fill-opacity:1;stroke:url(#c);stroke-width:.4;stroke-dasharray:none;stroke-opacity:1;paint-order:stroke fill markers;stop-color:#000"/><path d="M45 76h40v13H45z" style="fill:none;fill-opacity:1;stroke:url(#d);stroke-width:.4;stroke-dasharray:none;stroke-opacity:1;paint-order:stroke fill markers;stop-color:#000"/><path d="M45 90h40v30H45z" style="fill:none;fill-opacity:1;stroke:url(#e);stroke-width:.4;stroke-dasharray:none;stroke-opacity:1;paint-order:stroke fill markers;stop-color:#000"/><path d="M45 121h40v13H45z" style="fill:none;fill-opacity:1;stroke:url(#f);stroke-width:.4;stroke-dasharray:none;stroke-opacity:1;paint-order:stroke fill markers;stop-color:#000"/><text xml:space="preserve" x="52.845" style="font-size:21.3333px;line-height:1.1;font-family:&quot;Open Sans&quot;;-inkscape-font-specification:&quot;Open Sans&quot;;letter-spacing:0;white-space:pre;shape-inside:url(#g);display:inline" transform="matrix(.26458 0 0 .26458 -5 -162.337)"><tspan x="195.021" y="947.066"><tspan style="text-align:center;baseline-shift:baseline;text-anchor:middle;white-space:normal;opacity:1;vector-effect:none;fill:#33a02c;stroke-width:.999999;stop-color:#000;stop-opacity:1">+ cell QC stats</tspan></tspan></text><text xml:space="preserve" x="60.749" style="font-size:21.3333px;line-height:1.1;font-family:&quot;Open Sans&quot;;-inkscape-font-specification:&quot;Open Sans&quot;;letter-spacing:0;white-space:pre;shape-inside:url(#h);display:inline" transform="matrix(.26458 0 0 .26458 -5 -170.562)"><tspan x="215.041" y="1117.144"><tspan style="text-align:center;baseline-shift:baseline;text-anchor:middle;white-space:normal;opacity:1;vector-effect:none;fill:#e31a1c;stroke-width:.999999;stop-color:#000;stop-opacity:1">- bad cells</tspan></tspan></text><g style="stroke-width:1.99937" transform="matrix(.49734 0 0 .503 -30.392 7.828)"><path d="M107.955 148.292v21.462c0 7.676.662 9.498 1.45 12.43.788 2.93 3.85 15.173 4.497 17.65.647 2.477 1.855 2.433 2.503 2.433.648 0 1.856.044 2.503-2.433.646-2.477 3.709-14.72 4.497-17.65.787-2.932 1.45-4.754 1.45-12.43v-21.462" style="fill:#ebf2f2;fill-opacity:1;stroke:#5d666e;stroke-width:.799747;stroke-linecap:butt;stroke-linejoin:miter;stroke-dasharray:none;stroke-opacity:1;paint-order:normal"/><path d="M109.148 163.48v11.279c0 .598.188 2.927.59 4.45 1.859 7.055 5.233 20.533 5.449 20.986.262.551.817.787 1.218.787.4 0 .956-.236 1.218-.787.216-.453 3.59-13.931 5.45-20.986.4-1.523.577-3.852.589-4.45v-11.278z" style="mix-blend-mode:darken;fill:#c6e7f5;fill-opacity:1;stroke:#2b96b8;stroke-width:.799747;stroke-linecap:butt;stroke-linejoin:miter;stroke-dasharray:none;stroke-opacity:1"/><path d="M123.385 152.202h-3.75M123.385 163.48h-3.75M123.385 174.759h-3.75" style="fill:none;stroke:#4c4e4e;stroke-width:.799747;stroke-linecap:round;stroke-linejoin:round;stroke-dasharray:none;stroke-opacity:.581033"/><path d="M107.955 148.292v21.462c0 7.676.662 9.498 1.45 12.43.788 2.93 3.85 15.173 4.497 17.65.647 2.477 1.855 2.433 2.503 2.433.648 0 1.856.044 2.503-2.433.646-2.477 3.709-14.72 4.497-17.65.787-2.932 1.45-4.754 1.45-12.43v-21.462" style="fill:none;fill-opacity:1;stroke:#5d666e;stroke-width:.799747;stroke-linecap:butt;stroke-linejoin:miter;stroke-dasharray:none;stroke-opacity:1;paint-order:normal"/><rect width="18.375" height="2.422" x="107.217" y="146.265" rx=".316" ry=".204" style="opacity:1;fill:#ebf2f2;fill-opacity:1;stroke:#5d666e;stroke-width:.799747;stroke-dasharray:none;stroke-opacity:1;paint-order:normal;stop-color:#000"/><rect width="21.77" height="2.425" x="105.52" y="144.344" rx=".912" ry="1.039" style="opacity:1;fill:#ebf2f2;fill-opacity:1;stroke:#5d666e;stroke-width:.799747;stroke-dasharray:none;stroke-opacity:1;paint-order:normal;stop-color:#000"/></g><path d="M67.685 166.917c-.326-.432-.999-.543-1.457-.268-.59.432-.396 1.512.312 1.708a.905.905 0 0 0 1.09-.43c.165-.3.26-.705.055-1.01zM65.71 173.821c-.537.067-.97.594-.96 1.128.079.727 1.11 1.1 1.634.584a.905.905 0 0 0 .173-1.159c-.178-.293-.48-.577-.848-.553zM65.014 170.266c-.326-.431-.999-.543-1.457-.267-.59.432-.396 1.511.312 1.708a.905.905 0 0 0 1.09-.43c.165-.3.26-.705.055-1.01z" style="fill:#e5f3f7;fill-opacity:1;stroke:#204959;stroke-width:.4;stroke-linecap:butt;stroke-linejoin:miter;stroke-dasharray:none;stroke-opacity:1" transform="translate(-37.964 -74.198)"/><text xml:space="preserve" x="62.153" y="173.295" style="font-size:7.05556px;line-height:1.25;font-family:&quot;Open Sans&quot;;-inkscape-font-specification:&quot;Open Sans&quot;;letter-spacing:.264583px;fill:#e31a1c;fill-opacity:1;stroke-width:.264583" transform="translate(-37.964 -74.198)"><tspan x="62.153" y="173.295" style="fill:#e31a1c;fill-opacity:1;stroke-width:.264583">×</tspan></text><g style="stroke-width:.4;stroke-dasharray:none"><g style="stroke-width:.4;stroke-dasharray:none"><path d="M285.55 202.512s.127-2.852 2.046-3.645c1.92-.794 3.19 2.336 7.513-2.767M285.567 202.313l1.512.154M285.673 201.651l1.42.304M285.886 200.898l1.275.485M286.262 200.034l1.008.807M286.643 199.448l.71.778M287.208 199.044l.345.647M287.874 198.763l.124.544M288.663 198.734v.404M289.365 198.936l.01-.319M290.089 199.035l.045-.586M290.889 199.045l-.16-.728M291.635 198.838l-.341-.771M292.424 198.548l-.602-.91M293.183 198.013l-.81-.98M293.864 197.43l-.947-.941M294.462 196.952l-1.002-1.035M294.888 196.288l-.928-.913" style="fill:none;stroke:#204959;stroke-width:.4;stroke-linecap:butt;stroke-linejoin:miter;stroke-dasharray:none;stroke-opacity:1" transform="rotate(27.962 307.172 -370.794)"/></g><g style="stroke-width:.4;stroke-dasharray:none"><path d="M285.55 202.512s.127-2.852 2.046-3.645c1.92-.794 3.19 2.336 7.513-2.767M285.567 202.313l1.512.154M285.673 201.651l1.42.304M285.886 200.898l1.275.485M286.262 200.034l1.008.807M286.643 199.448l.71.778M287.208 199.044l.345.647M287.874 198.763l.124.544M288.663 198.734v.404M289.365 198.936l.01-.319M290.089 199.035l.045-.586M290.889 199.045l-.16-.728M291.635 198.838l-.341-.771M292.424 198.548l-.602-.91M293.183 198.013l-.81-.98M293.864 197.43l-.947-.941M294.462 196.952l-1.002-1.035M294.888 196.288l-.928-.913" style="fill:none;stroke:#204959;stroke-width:.4;stroke-linecap:butt;stroke-linejoin:miter;stroke-dasharray:none;stroke-opacity:1" transform="rotate(27.962 301.412 -362.88)"/></g><g style="stroke-width:.4;stroke-dasharray:none"><path d="M285.55 202.512s.127-2.852 2.046-3.645c1.92-.794 3.19 2.336 7.513-2.767M285.567 202.313l1.512.154M285.673 201.651l1.42.304M285.886 200.898l1.275.485M286.262 200.034l1.008.807M286.643 199.448l.71.778M287.208 199.044l.345.647M287.874 198.763l.124.544M288.663 198.734v.404M289.365 198.936l.01-.319M290.089 199.035l.045-.586M290.889 199.045l-.16-.728M291.635 198.838l-.341-.771M292.424 198.548l-.602-.91M293.183 198.013l-.81-.98M293.864 197.43l-.947-.941M294.462 196.952l-1.002-1.035M294.888 196.288l-.928-.913" style="fill:none;stroke:#204959;stroke-width:.4;stroke-linecap:butt;stroke-linejoin:miter;stroke-dasharray:none;stroke-opacity:1" transform="rotate(27.962 324.052 -370.521)"/></g><g style="stroke-width:.4;stroke-dasharray:none"><path d="M285.55 202.512s.127-2.852 2.046-3.645c1.92-.794 3.19 2.336 7.513-2.767M285.567 202.313l1.512.154M285.673 201.651l1.42.304M285.886 200.898l1.275.485M286.262 200.034l1.008.807M286.643 199.448l.71.778M287.208 199.044l.345.647M287.874 198.763l.124.544M288.663 198.734v.404M289.365 198.936l.01-.319M290.089 199.035l.045-.586M290.889 199.045l-.16-.728M291.635 198.838l-.341-.771M292.424 198.548l-.602-.91M293.183 198.013l-.81-.98M293.864 197.43l-.947-.941M294.462 196.952l-1.002-1.035M294.888 196.288l-.928-.913" style="fill:none;stroke:#204959;stroke-width:.4;stroke-linecap:butt;stroke-linejoin:miter;stroke-dasharray:none;stroke-opacity:1" transform="rotate(27.962 318.292 -362.607)"/></g></g><path d="M161.744 90.15h26v26h-26z" style="fill:#f9fdfd;fill-opacity:1;stroke:#000;stroke-width:.4;stroke-linecap:round;stroke-linejoin:miter;stroke-dasharray:none;stroke-dashoffset:0;stroke-opacity:1;paint-order:normal;stop-color:#000" transform="translate(-113.744 1.85)"/><path d="M188.744 90.15h7v26h-7z" style="fill:#b2df8a;fill-opacity:1;stroke:#000;stroke-width:.4;stroke-linecap:round;stroke-linejoin:miter;stroke-dasharray:none;stroke-dashoffset:0;stroke-opacity:1;paint-order:normal;stop-color:#000" transform="translate(-113.744 1.85)"/><path d="M161.744 98.15h34M161.744 114.15h34M161.744 94.15h34M161.744 111.15h34M161.744 95.15h34M161.744 109.15h34" style="fill:none;fill-opacity:1;stroke:#e31a1c;stroke-width:.4;stroke-linecap:butt;stroke-linejoin:miter;stroke-dasharray:.4,.4;stroke-dashoffset:0;stroke-opacity:1" transform="translate(-113.744 1.85)"/></g></svg>