<svg xmlns="http://www.w3.org/2000/svg" xmlns:xlink="http://www.w3.org/1999/xlink" xml:space="preserve" width="303.874" height="228.283" viewBox="0 0 80.4 60.4"><defs><linearGradient id="a"><stop offset="0" style="stop-color:#fc3a4d;stop-opacity:0"/></linearGradient><linearGradient xlink:href="#a" id="b" x1="14.8" x2="40.2" y1="180" y2="180" gradientUnits="userSpaceOnUse"/><linearGradient xlink:href="#a" id="c" x1="14.8" x2="40.2" y1="207.5" y2="207.5" gradientUnits="userSpaceOnUse"/><linearGradient xlink:href="#a" id="d" x1="44.8" x2="85.2" y1="167.5" y2="167.5" gradientUnits="userSpaceOnUse"/><linearGradient xlink:href="#a" id="e" x1="44.8" x2="85.2" y1="190" y2="190" gradientUnits="userSpaceOnUse"/><linearGradient xlink:href="#a" id="f" x1="44.8" x2="85.2" y1="212.5" y2="212.5" gradientUnits="userSpaceOnUse"/><path id="g" d="M188.976 929.764h151.181v49.134H188.976z"/><path id="h" d="M188.976 1099.842h151.181v49.134H188.976z"/></defs><g transform="translate(-9.8 -159.8)"><path d="M10 160h80v60H10z" style="fill:#f0f0f0;fill-opacity:.533211;stroke:#000;stroke-width:.4;stroke-linecap:round;stroke-linejoin:miter;stroke-dasharray:none;stroke-dashoffset:0;stroke-opacity:1;paint-order:normal;stop-color:#000"/><path d="M15 165h25v30H15z" style="fill:none;fill-opacity:1;stroke:url(#b);stroke-width:.4;stroke-dasharray:none;stroke-opacity:1;paint-order:stroke fill markers;stop-color:#000"/><g style="stroke-width:1.99937" transform="matrix(.49734 0 0 .503 -30.392 92.828)"><path d="M107.955 148.292v21.462c0 7.676.662 9.498 1.45 12.43.788 2.93 3.85 15.173 4.497 17.65.647 2.477 1.855 2.433 2.503 2.433.648 0 1.856.044 2.503-2.433.646-2.477 3.709-14.72 4.497-17.65.787-2.932 1.45-4.754 1.45-12.43v-21.462" style="fill:#ebf2f2;fill-opacity:1;stroke:#5d666e;stroke-width:.799747;stroke-linecap:butt;stroke-linejoin:miter;stroke-dasharray:none;stroke-opacity:1;paint-order:normal"/><path d="M109.148 163.48v11.279c0 .598.188 2.927.59 4.45 1.859 7.055 5.233 20.533 5.449 20.986.262.551.817.787 1.218.787.4 0 .956-.236 1.218-.787.216-.453 3.59-13.931 5.45-20.986.4-1.523.577-3.852.589-4.45v-11.278z" style="mix-blend-mode:darken;fill:#c6e7f5;fill-opacity:1;stroke:#2b96b8;stroke-width:.799747;stroke-linecap:butt;stroke-linejoin:miter;stroke-dasharray:none;stroke-opacity:1"/><path d="M123.385 152.202h-3.75M123.385 163.48h-3.75M123.385 174.759h-3.75" style="fill:none;stroke:#4c4e4e;stroke-width:.799747;stroke-linecap:round;stroke-linejoin:round;stroke-dasharray:none;stroke-opacity:.581033"/><path d="M107.955 148.292v21.462c0 7.676.662 9.498 1.45 12.43.788 2.93 3.85 15.173 4.497 17.65.647 2.477 1.855 2.433 2.503 2.433.648 0 1.856.044 2.503-2.433.646-2.477 3.709-14.72 4.497-17.65.787-2.932 1.45-4.754 1.45-12.43v-21.462" style="fill:none;fill-opacity:1;stroke:#5d666e;stroke-width:.799747;stroke-linecap:butt;stroke-linejoin:miter;stroke-dasharray:none;stroke-opacity:1;paint-order:normal"/><rect width="18.375" height="2.422" x="107.217" y="146.265" rx=".316" ry=".204" style="opacity:1;fill:#ebf2f2;fill-opacity:1;stroke:#5d666e;stroke-width:.799747;stroke-dasharray:none;stroke-opacity:1;paint-order:normal;stop-color:#000"/><rect width="21.77" height="2.425" x="105.52" y="144.344" rx=".912" ry="1.039" style="opacity:1;fill:#ebf2f2;fill-opacity:1;stroke:#5d666e;stroke-width:.799747;stroke-dasharray:none;stroke-opacity:1;paint-order:normal;stop-color:#000"/></g><path d="M67.685 166.917c-.326-.432-.999-.543-1.457-.268-.59.432-.396 1.512.312 1.708a.905.905 0 0 0 1.09-.43c.165-.3.26-.705.055-1.01zM65.71 173.821c-.537.067-.97.594-.96 1.128.079.727 1.11 1.1 1.634.584a.905.905 0 0 0 .173-1.159c-.178-.293-.48-.577-.848-.553zM65.014 170.266c-.326-.431-.999-.543-1.457-.267-.59.432-.396 1.511.312 1.708a.905.905 0 0 0 1.09-.43c.165-.3.26-.705.055-1.01z" style="fill:#e5f3f7;fill-opacity:1;stroke:#204959;stroke-width:.4;stroke-linecap:butt;stroke-linejoin:miter;stroke-dasharray:none;stroke-opacity:1" transform="translate(-37.964 10.802)"/><text xml:space="preserve" x="62.153" y="173.295" style="font-size:7.05556px;line-height:1.25;font-family:&quot;Open Sans&quot;;-inkscape-font-specification:&quot;Open Sans&quot;;letter-spacing:.264583px;fill:#e31a1c;fill-opacity:1;stroke-width:.264583" transform="translate(-37.964 10.802)"><tspan x="62.153" y="173.295" style="fill:#e31a1c;fill-opacity:1;stroke-width:.264583">×</tspan></text><rect width="25" height="15" x="15" y="200" ry="0" style="fill:none;fill-opacity:1;stroke:url(#c);stroke-width:.4;stroke-dasharray:none;stroke-opacity:1;paint-order:stroke fill markers;stop-color:#000"/><path d="M57.236 190.866s1.449-2.46 3.516-2.26c2.067.199 1.722 3.559 7.933 1.079M57.344 190.698l1.263.845M57.748 190.163l1.111.935M58.289 189.598l.9 1.027M59.026 189.011l.513 1.186M59.638 188.672l.262 1.02M60.326 188.58l.002.734M61.046 188.645l-.146.538M61.757 188.989l-.19.357M62.282 189.496l.158-.277M62.875 189.923l.315-.496M63.577 190.307l.2-.717M64.333 190.475l.06-.842M65.166 190.588l-.105-1.087M66.087 190.472l-.257-1.246M66.962 190.276 66.567 189M67.714 190.134l-.4-1.384M68.402 189.747l-.392-1.242" style="fill:none;stroke:#204959;stroke-width:.4;stroke-linecap:butt;stroke-linejoin:miter;stroke-dasharray:none;stroke-opacity:1" transform="translate(-36.783 15.74)"/><path d="m74.261 190.558-2.403-1.388-3.02.81M71.601 189.708l2.363 1.365M73.087 186.173l-1.387 2.405-3.021.81M71.208 188.24l1.364-2.364" style="fill:none;stroke:#204959;stroke-width:.400001;stroke-linecap:butt;stroke-linejoin:miter;stroke-dasharray:none;stroke-opacity:1" transform="translate(-36.783 15.74)"/><path d="M57.236 190.866s1.449-2.46 3.516-2.26c2.067.199 1.722 3.559 7.933 1.079M57.344 190.698l1.263.845M57.748 190.163l1.111.935M58.289 189.598l.9 1.027M59.026 189.011l.513 1.186M59.638 188.672l.262 1.02M60.326 188.58l.002.734M61.046 188.645l-.146.538M61.757 188.989l-.19.357M62.282 189.496l.158-.277M62.875 189.923l.315-.496M63.577 190.307l.2-.717M64.333 190.475l.06-.842M65.166 190.588l-.105-1.087M66.087 190.472l-.257-1.246M66.962 190.276 66.567 189M67.714 190.134l-.4-1.384M68.402 189.747l-.392-1.242" style="fill:none;stroke:#204959;stroke-width:.4;stroke-linecap:butt;stroke-linejoin:miter;stroke-dasharray:none;stroke-opacity:1" transform="translate(-39.643 21.775)"/><path d="m74.261 190.558-2.403-1.388-3.02.81M71.601 189.708l2.363 1.365M73.087 186.173l-1.387 2.405-3.021.81M71.208 188.24l1.364-2.364" style="fill:none;stroke:#204959;stroke-width:.400001;stroke-linecap:butt;stroke-linejoin:miter;stroke-dasharray:none;stroke-opacity:1" transform="translate(-39.643 21.775)"/><path d="M45 161h40v13H45z" style="fill:none;fill-opacity:1;stroke:url(#d);stroke-width:.4;stroke-dasharray:none;stroke-opacity:1;paint-order:stroke fill markers;stop-color:#000"/><path d="M45 175h40v30H45z" style="fill:none;fill-opacity:1;stroke:url(#e);stroke-width:.4;stroke-dasharray:none;stroke-opacity:1;paint-order:stroke fill markers;stop-color:#000"/><path d="M161.744 90.15h26v26h-26z" style="fill:#f9fdfd;fill-opacity:1;stroke:#000;stroke-width:.4;stroke-linecap:round;stroke-linejoin:miter;stroke-dasharray:none;stroke-dashoffset:0;stroke-opacity:1;paint-order:normal;stop-color:#000" transform="translate(-113.744 86.85)"/><path d="M188.744 90.15h7v26h-7z" style="fill:#b2df8a;fill-opacity:1;stroke:#000;stroke-width:.4;stroke-linecap:round;stroke-linejoin:miter;stroke-dasharray:none;stroke-dashoffset:0;stroke-opacity:1;paint-order:normal;stop-color:#000" transform="translate(-113.744 86.85)"/><path d="M161.744 98.15h34M161.744 114.15h34M161.744 94.15h34M161.744 111.15h34M161.744 95.15h34M161.744 109.15h34" style="fill:none;fill-opacity:1;stroke:#e31a1c;stroke-width:.4;stroke-linecap:butt;stroke-linejoin:miter;stroke-dasharray:.4,.4;stroke-dashoffset:0;stroke-opacity:1" transform="translate(-113.744 86.85)"/><path d="M45 206h40v13H45z" style="fill:none;fill-opacity:1;stroke:url(#f);stroke-width:.4;stroke-dasharray:none;stroke-opacity:1;paint-order:stroke fill markers;stop-color:#000"/><text xml:space="preserve" x="52.845" style="font-size:21.3333px;line-height:1.1;font-family:&quot;Open Sans&quot;;-inkscape-font-specification:&quot;Open Sans&quot;;letter-spacing:1px;white-space:pre;shape-inside:url(#g);display:inline" transform="matrix(.26458 0 0 .26458 -5 -77.337)"><tspan x="195.021" y="947.066"><tspan style="text-align:center;letter-spacing:0;baseline-shift:baseline;text-anchor:middle;white-space:normal;opacity:1;vector-effect:none;fill:#33a02c;stroke-width:.999999;stop-color:#000;stop-opacity:1">+ cell QC stats</tspan></tspan></text><text xml:space="preserve" x="60.749" style="font-size:21.3333px;line-height:1.1;font-family:&quot;Open Sans&quot;;-inkscape-font-specification:&quot;Open Sans&quot;;letter-spacing:1px;white-space:pre;shape-inside:url(#h);display:inline" transform="matrix(.26458 0 0 .26458 -5 -85.562)"><tspan x="215.041" y="1117.144"><tspan style="text-align:center;letter-spacing:0;baseline-shift:baseline;text-anchor:middle;white-space:normal;opacity:1;vector-effect:none;fill:#e31a1c;stroke-width:.999999;stop-color:#000;stop-opacity:1">- bad cells</tspan></tspan></text></g></svg>