<?xml version="1.0" encoding="UTF-8" standalone="no"?>
<!-- Created with Inkscape (http://www.inkscape.org/) -->

<svg
   width="80.400002mm"
   height="60.400002mm"
   viewBox="0 0 80.400002 60.400002"
   version="1.1"
   id="svg5"
   inkscape:version="1.2.2 (b0a8486541, 2022-12-01)"
   sodipodi:docname="image.svg"
   xml:space="preserve"
   xmlns:inkscape="http://www.inkscape.org/namespaces/inkscape"
   xmlns:sodipodi="http://sodipodi.sourceforge.net/DTD/sodipodi-0.dtd"
   xmlns:xlink="http://www.w3.org/1999/xlink"
   xmlns="http://www.w3.org/2000/svg"
   xmlns:svg="http://www.w3.org/2000/svg"><sodipodi:namedview
     id="namedview7"
     pagecolor="#ffffff"
     bordercolor="#666666"
     borderopacity="1.0"
     inkscape:showpageshadow="2"
     inkscape:pageopacity="0.0"
     inkscape:pagecheckerboard="0"
     inkscape:deskcolor="#d1d1d1"
     inkscape:document-units="mm"
     showgrid="true"
     inkscape:zoom="3.5893537"
     inkscape:cx="209.50847"
     inkscape:cy="131.2214"
     inkscape:window-width="3840"
     inkscape:window-height="2091"
     inkscape:window-x="0"
     inkscape:window-y="32"
     inkscape:window-maximized="1"
     inkscape:current-layer="layer1"
     showguides="false"><inkscape:grid
       type="xygrid"
       id="grid24719"
       units="mm"
       spacingx="1"
       spacingy="1"
       originx="-94.8"
       originy="-159.8" /></sodipodi:namedview><defs
     id="defs2"><linearGradient
       id="linearGradient41011"
       inkscape:swatch="solid"><stop
         style="stop-color:#fc3a4d;stop-opacity:0;"
         offset="0"
         id="stop41009" /></linearGradient><linearGradient
       id="linearGradient40947"
       inkscape:swatch="solid"><stop
         style="stop-color:#a6cee3;stop-opacity:1;"
         offset="0"
         id="stop40945" /></linearGradient><rect
       x="491.33859"
       y="287.24408"
       width="151.18111"
       height="49.133858"
       id="rect33220" /><rect
       x="188.97638"
       y="1099.8425"
       width="151.18111"
       height="49.133858"
       id="rect24899" /><rect
       x="188.97638"
       y="929.76379"
       width="151.18111"
       height="49.133858"
       id="rect24889" /><rect
       x="188.97638"
       y="929.76379"
       width="151.18111"
       height="49.133858"
       id="rect24881" /><rect
       x="196.53543"
       y="948.66144"
       width="139.84253"
       height="47.539265"
       id="rect24819" /><rect
       x="196.53543"
       y="948.66144"
       width="139.84253"
       height="47.539265"
       id="rect24825" /><rect
       x="188.97638"
       y="929.76379"
       width="151.18111"
       height="49.133858"
       id="rect24895" /><rect
       x="188.97638"
       y="929.76379"
       width="151.18111"
       height="49.133858"
       id="rect24889-9" /><rect
       x="188.97638"
       y="1099.8425"
       width="151.18111"
       height="49.133858"
       id="rect24899-7" /><rect
       x="188.97638"
       y="929.76379"
       width="151.18111"
       height="49.133858"
       id="rect24889-9-4" /><rect
       x="188.97638"
       y="1099.8425"
       width="151.18111"
       height="49.133858"
       id="rect24899-7-4" /><rect
       x="188.97638"
       y="929.76379"
       width="151.18111"
       height="49.133858"
       id="rect30643" /><rect
       x="188.97638"
       y="1099.8425"
       width="151.18111"
       height="49.133858"
       id="rect30645" /><rect
       x="188.97638"
       y="929.76379"
       width="151.18111"
       height="49.133858"
       id="rect30887" /><rect
       x="188.97638"
       y="1099.8425"
       width="151.18111"
       height="49.133858"
       id="rect30889" /><rect
       x="188.97638"
       y="929.76379"
       width="151.18111"
       height="49.133858"
       id="rect35826" /><rect
       x="188.97638"
       y="1099.8425"
       width="151.18111"
       height="49.133858"
       id="rect35828" /><rect
       x="188.97638"
       y="1099.8425"
       width="151.18111"
       height="49.133858"
       id="rect35830" /><rect
       x="491.33859"
       y="287.24408"
       width="151.18111"
       height="49.133858"
       id="rect35832" /><linearGradient
       inkscape:collect="always"
       xlink:href="#linearGradient41011"
       id="linearGradient41063"
       x1="99.800003"
       y1="180"
       x2="125.2"
       y2="180"
       gradientUnits="userSpaceOnUse" /><linearGradient
       inkscape:collect="always"
       xlink:href="#linearGradient41011"
       id="linearGradient41065"
       x1="99.800003"
       y1="207.5"
       x2="125.2"
       y2="207.5"
       gradientUnits="userSpaceOnUse" /><linearGradient
       inkscape:collect="always"
       xlink:href="#linearGradient41011"
       id="linearGradient41067"
       x1="129.8"
       y1="167.5"
       x2="170.2"
       y2="167.5"
       gradientUnits="userSpaceOnUse" /><linearGradient
       inkscape:collect="always"
       xlink:href="#linearGradient41011"
       id="linearGradient41069"
       x1="129.8"
       y1="190"
       x2="170.2"
       y2="190"
       gradientUnits="userSpaceOnUse" /><linearGradient
       inkscape:collect="always"
       xlink:href="#linearGradient41011"
       id="linearGradient41071"
       x1="129.8"
       y1="212.5"
       x2="170.2"
       y2="212.5"
       gradientUnits="userSpaceOnUse" /></defs><g
     inkscape:label="Layer 1"
     inkscape:groupmode="layer"
     id="layer1"
     transform="translate(-94.8,-159.8)"><text
       xml:space="preserve"
       transform="scale(0.26458333)"
       id="text24879"
       style="font-size:26.6667px;line-height:1.25;font-family:'Open Sans';-inkscape-font-specification:'Open Sans';letter-spacing:1px;white-space:pre;shape-inside:url(#rect24881);display:inline" /><rect
       style="fill:#f0f0f0;fill-opacity:0.533211;stroke:#000000;stroke-width:0.4;stroke-linecap:round;stroke-linejoin:miter;stroke-dasharray:none;stroke-dashoffset:0;stroke-opacity:1;paint-order:normal;stop-color:#000000"
       id="rect35542"
       width="80"
       height="60"
       x="95"
       y="160" /><rect
       style="fill:none;fill-opacity:1;stroke:url(#linearGradient41063);stroke-width:0.4;stroke-dasharray:none;stroke-opacity:1;paint-order:stroke fill markers;stop-color:#000000"
       id="rect35550"
       width="25"
       height="30"
       x="100"
       y="165" /><rect
       style="fill:none;fill-opacity:1;stroke:url(#linearGradient41065);stroke-width:0.4;stroke-dasharray:none;stroke-opacity:1;paint-order:stroke fill markers;stop-color:#000000"
       id="rect35552"
       width="25"
       height="15"
       x="100"
       y="200"
       ry="0" /><g
       id="g22556-5-5"
       transform="translate(46.903174,14.423683)"><g
         id="g16983-2-9"
         transform="translate(1.314321,1.3162338)"><path
           style="fill:none;stroke:#204959;stroke-width:0.4;stroke-linecap:butt;stroke-linejoin:miter;stroke-dasharray:none;stroke-opacity:1"
           d="m 57.235898,190.86577 c 0,0 1.449112,-2.45894 3.516222,-2.25987 2.06712,0.19908 1.721769,3.55864 7.932776,1.07891"
           id="path2771-6-1"
           sodipodi:nodetypes="csc" /><path
           style="fill:none;stroke:#204959;stroke-width:0.4;stroke-linecap:butt;stroke-linejoin:miter;stroke-dasharray:none;stroke-opacity:1"
           d="m 57.343884,190.69774 1.26352,0.84514"
           id="path2773-9-7"
           sodipodi:nodetypes="cc" /><path
           style="fill:none;stroke:#204959;stroke-width:0.4;stroke-linecap:butt;stroke-linejoin:miter;stroke-dasharray:none;stroke-opacity:1"
           d="m 57.747989,190.16335 1.110986,0.93422"
           id="path2775-4-7" /><path
           style="fill:none;stroke:#204959;stroke-width:0.4;stroke-linecap:butt;stroke-linejoin:miter;stroke-dasharray:none;stroke-opacity:1"
           d="m 58.288996,189.59798 0.899062,1.02653"
           id="path2777-4-4" /><path
           style="fill:none;stroke:#204959;stroke-width:0.4;stroke-linecap:butt;stroke-linejoin:miter;stroke-dasharray:none;stroke-opacity:1"
           d="m 59.026451,189.01134 0.512094,1.18588"
           id="path2779-6-1" /><path
           style="fill:none;stroke:#204959;stroke-width:0.4;stroke-linecap:butt;stroke-linejoin:miter;stroke-dasharray:none;stroke-opacity:1"
           d="m 59.637707,188.67181 0.262445,1.02058"
           id="path2781-0-1" /><path
           style="fill:none;stroke:#204959;stroke-width:0.4;stroke-linecap:butt;stroke-linejoin:miter;stroke-dasharray:none;stroke-opacity:1"
           d="m 60.326153,188.58092 0.0019,0.73276"
           id="path2783-7-9" /><path
           style="fill:none;stroke:#204959;stroke-width:0.4;stroke-linecap:butt;stroke-linejoin:miter;stroke-dasharray:none;stroke-opacity:1"
           d="m 61.046092,188.64467 -0.145886,0.53836"
           id="path2785-4-1" /><path
           style="fill:none;stroke:#204959;stroke-width:0.4;stroke-linecap:butt;stroke-linejoin:miter;stroke-dasharray:none;stroke-opacity:1"
           d="m 61.756892,188.98882 -0.189526,0.35702"
           id="path2787-37-3" /><path
           style="fill:none;stroke:#204959;stroke-width:0.4;stroke-linecap:butt;stroke-linejoin:miter;stroke-dasharray:none;stroke-opacity:1"
           d="m 62.281866,189.49633 0.158404,-0.27706"
           id="path2789-9-8" /><path
           style="fill:none;stroke:#204959;stroke-width:0.4;stroke-linecap:butt;stroke-linejoin:miter;stroke-dasharray:none;stroke-opacity:1"
           d="m 62.874878,189.92342 0.315244,-0.49658"
           id="path2791-0-7" /><path
           style="fill:none;stroke:#204959;stroke-width:0.4;stroke-linecap:butt;stroke-linejoin:miter;stroke-dasharray:none;stroke-opacity:1"
           d="m 63.5765,190.30749 0.201114,-0.71762"
           id="path2793-0-4" /><path
           style="fill:none;stroke:#204959;stroke-width:0.4;stroke-linecap:butt;stroke-linejoin:miter;stroke-dasharray:none;stroke-opacity:1"
           d="m 64.332732,190.47468 0.06061,-0.84174"
           id="path2795-2-9" /><path
           style="fill:none;stroke:#204959;stroke-width:0.4;stroke-linecap:butt;stroke-linejoin:miter;stroke-dasharray:none;stroke-opacity:1"
           d="m 65.165553,190.58838 -0.104749,-1.08724"
           id="path2797-2-3" /><path
           style="fill:none;stroke:#204959;stroke-width:0.4;stroke-linecap:butt;stroke-linejoin:miter;stroke-dasharray:none;stroke-opacity:1"
           d="M 66.087065,190.47153 65.83033,189.22588"
           id="path2799-6-1" /><path
           style="fill:none;stroke:#204959;stroke-width:0.4;stroke-linecap:butt;stroke-linejoin:miter;stroke-dasharray:none;stroke-opacity:1"
           d="M 66.962214,190.27569 66.56728,189.00046"
           id="path2801-9-3"
           sodipodi:nodetypes="cc" /><path
           style="fill:none;stroke:#204959;stroke-width:0.4;stroke-linecap:butt;stroke-linejoin:miter;stroke-dasharray:none;stroke-opacity:1"
           d="m 67.714105,190.13409 -0.399264,-1.38413"
           id="path2803-0-8"
           sodipodi:nodetypes="cc" /><path
           style="fill:none;stroke:#204959;stroke-width:0.4;stroke-linecap:butt;stroke-linejoin:miter;stroke-dasharray:none;stroke-opacity:1"
           d="m 68.40172,189.7474 -0.391401,-1.24198"
           id="path2805-3-7"
           sodipodi:nodetypes="cc" /><path
           style="fill:none;stroke:#204959;stroke-width:0.400001;stroke-linecap:butt;stroke-linejoin:miter;stroke-dasharray:none;stroke-opacity:1"
           d="m 74.261482,190.55782 -2.403225,-1.38816 -3.020857,0.80983"
           id="path8249-1-5-9"
           sodipodi:nodetypes="ccc" /><path
           style="fill:none;stroke:#204959;stroke-width:0.400001;stroke-linecap:butt;stroke-linejoin:miter;stroke-dasharray:none;stroke-opacity:1"
           d="m 71.601453,189.70843 2.362645,1.36472"
           id="path8251-2-5-3"
           sodipodi:nodetypes="cc" /><path
           style="fill:none;stroke:#204959;stroke-width:0.400001;stroke-linecap:butt;stroke-linejoin:miter;stroke-dasharray:none;stroke-opacity:1"
           d="m 73.087254,186.17344 -1.387509,2.40437 -3.020857,0.80982"
           id="path9705-07-8-8"
           sodipodi:nodetypes="ccc" /><path
           style="fill:none;stroke:#204959;stroke-width:0.400001;stroke-linecap:butt;stroke-linejoin:miter;stroke-dasharray:none;stroke-opacity:1"
           d="m 71.20809,188.23968 1.36408,-2.36377"
           id="path9707-3-71-8"
           sodipodi:nodetypes="cc" /></g><g
         id="g22508-7-4"
         transform="translate(-1.5457796,7.3513342)"><path
           style="fill:none;stroke:#204959;stroke-width:0.4;stroke-linecap:butt;stroke-linejoin:miter;stroke-dasharray:none;stroke-opacity:1"
           d="m 57.235898,190.86577 c 0,0 1.449112,-2.45894 3.516222,-2.25987 2.06712,0.19908 1.721769,3.55864 7.932776,1.07891"
           id="path22464-0-0"
           sodipodi:nodetypes="csc" /><path
           style="fill:none;stroke:#204959;stroke-width:0.4;stroke-linecap:butt;stroke-linejoin:miter;stroke-dasharray:none;stroke-opacity:1"
           d="m 57.343884,190.69774 1.26352,0.84514"
           id="path22466-60-0"
           sodipodi:nodetypes="cc" /><path
           style="fill:none;stroke:#204959;stroke-width:0.4;stroke-linecap:butt;stroke-linejoin:miter;stroke-dasharray:none;stroke-opacity:1"
           d="m 57.747989,190.16335 1.110986,0.93422"
           id="path22468-4-8" /><path
           style="fill:none;stroke:#204959;stroke-width:0.4;stroke-linecap:butt;stroke-linejoin:miter;stroke-dasharray:none;stroke-opacity:1"
           d="m 58.288996,189.59798 0.899062,1.02653"
           id="path22470-1-6" /><path
           style="fill:none;stroke:#204959;stroke-width:0.4;stroke-linecap:butt;stroke-linejoin:miter;stroke-dasharray:none;stroke-opacity:1"
           d="m 59.026451,189.01134 0.512094,1.18588"
           id="path22472-3-8" /><path
           style="fill:none;stroke:#204959;stroke-width:0.4;stroke-linecap:butt;stroke-linejoin:miter;stroke-dasharray:none;stroke-opacity:1"
           d="m 59.637707,188.67181 0.262445,1.02058"
           id="path22474-02-2" /><path
           style="fill:none;stroke:#204959;stroke-width:0.4;stroke-linecap:butt;stroke-linejoin:miter;stroke-dasharray:none;stroke-opacity:1"
           d="m 60.326153,188.58092 0.0019,0.73276"
           id="path22476-96-3" /><path
           style="fill:none;stroke:#204959;stroke-width:0.4;stroke-linecap:butt;stroke-linejoin:miter;stroke-dasharray:none;stroke-opacity:1"
           d="m 61.046092,188.64467 -0.145886,0.53836"
           id="path22478-09-8" /><path
           style="fill:none;stroke:#204959;stroke-width:0.4;stroke-linecap:butt;stroke-linejoin:miter;stroke-dasharray:none;stroke-opacity:1"
           d="m 61.756892,188.98882 -0.189526,0.35702"
           id="path22480-3-5" /><path
           style="fill:none;stroke:#204959;stroke-width:0.4;stroke-linecap:butt;stroke-linejoin:miter;stroke-dasharray:none;stroke-opacity:1"
           d="m 62.281866,189.49633 0.158404,-0.27706"
           id="path22482-5-0" /><path
           style="fill:none;stroke:#204959;stroke-width:0.4;stroke-linecap:butt;stroke-linejoin:miter;stroke-dasharray:none;stroke-opacity:1"
           d="m 62.874878,189.92342 0.315244,-0.49658"
           id="path22484-43-5" /><path
           style="fill:none;stroke:#204959;stroke-width:0.4;stroke-linecap:butt;stroke-linejoin:miter;stroke-dasharray:none;stroke-opacity:1"
           d="m 63.5765,190.30749 0.201114,-0.71762"
           id="path22486-6-9" /><path
           style="fill:none;stroke:#204959;stroke-width:0.4;stroke-linecap:butt;stroke-linejoin:miter;stroke-dasharray:none;stroke-opacity:1"
           d="m 64.332732,190.47468 0.06061,-0.84174"
           id="path22488-4-2" /><path
           style="fill:none;stroke:#204959;stroke-width:0.4;stroke-linecap:butt;stroke-linejoin:miter;stroke-dasharray:none;stroke-opacity:1"
           d="m 65.165553,190.58838 -0.104749,-1.08724"
           id="path22490-3-6" /><path
           style="fill:none;stroke:#204959;stroke-width:0.4;stroke-linecap:butt;stroke-linejoin:miter;stroke-dasharray:none;stroke-opacity:1"
           d="M 66.087065,190.47153 65.83033,189.22588"
           id="path22492-1-8" /><path
           style="fill:none;stroke:#204959;stroke-width:0.4;stroke-linecap:butt;stroke-linejoin:miter;stroke-dasharray:none;stroke-opacity:1"
           d="M 66.962214,190.27569 66.56728,189.00046"
           id="path22494-9-5"
           sodipodi:nodetypes="cc" /><path
           style="fill:none;stroke:#204959;stroke-width:0.4;stroke-linecap:butt;stroke-linejoin:miter;stroke-dasharray:none;stroke-opacity:1"
           d="m 67.714105,190.13409 -0.399264,-1.38413"
           id="path22496-1-2"
           sodipodi:nodetypes="cc" /><path
           style="fill:none;stroke:#204959;stroke-width:0.4;stroke-linecap:butt;stroke-linejoin:miter;stroke-dasharray:none;stroke-opacity:1"
           d="m 68.40172,189.7474 -0.391401,-1.24198"
           id="path22498-09-8"
           sodipodi:nodetypes="cc" /><path
           style="fill:none;stroke:#204959;stroke-width:0.400001;stroke-linecap:butt;stroke-linejoin:miter;stroke-dasharray:none;stroke-opacity:1"
           d="m 74.261482,190.55782 -2.403225,-1.38816 -3.020857,0.80983"
           id="path22500-4-3"
           sodipodi:nodetypes="ccc" /><path
           style="fill:none;stroke:#204959;stroke-width:0.400001;stroke-linecap:butt;stroke-linejoin:miter;stroke-dasharray:none;stroke-opacity:1"
           d="m 71.601453,189.70843 2.362645,1.36472"
           id="path22502-5-6"
           sodipodi:nodetypes="cc" /><path
           style="fill:none;stroke:#204959;stroke-width:0.400001;stroke-linecap:butt;stroke-linejoin:miter;stroke-dasharray:none;stroke-opacity:1"
           d="m 73.087254,186.17344 -1.387509,2.40437 -3.020857,0.80982"
           id="path22504-6-7"
           sodipodi:nodetypes="ccc" /><path
           style="fill:none;stroke:#204959;stroke-width:0.400001;stroke-linecap:butt;stroke-linejoin:miter;stroke-dasharray:none;stroke-opacity:1"
           d="m 71.20809,188.23968 1.36408,-2.36377"
           id="path22506-2-8"
           sodipodi:nodetypes="cc" /></g></g><rect
       style="fill:none;fill-opacity:1;stroke:url(#linearGradient41067);stroke-width:0.4;stroke-dasharray:none;stroke-opacity:1;paint-order:stroke fill markers;stop-color:#000000"
       id="rect35718"
       width="40"
       height="13"
       x="130"
       y="161" /><rect
       style="fill:none;fill-opacity:1;stroke:url(#linearGradient41069);stroke-width:0.4;stroke-dasharray:none;stroke-opacity:1;paint-order:stroke fill markers;stop-color:#000000"
       id="rect35720"
       width="40"
       height="30"
       x="130"
       y="175" /><g
       id="g35732"
       transform="translate(-104.11926,83.157037)"><g
         id="g35730"><rect
           style="fill:#f9fdfd;fill-opacity:1;stroke:#000000;stroke-width:0.4;stroke-linecap:round;stroke-linejoin:miter;stroke-dasharray:none;stroke-dashoffset:0;stroke-opacity:1;paint-order:normal;stop-color:#000000"
           id="rect35722"
           width="25"
           height="22"
           x="238.11926"
           y="98.842964" /><rect
           style="fill:#a6cee3;fill-opacity:1;stroke:#000000;stroke-width:0.4;stroke-linecap:round;stroke-linejoin:miter;stroke-dasharray:none;stroke-dashoffset:0;stroke-opacity:1;paint-order:normal;stop-color:#000000"
           id="rect35724"
           width="25"
           height="22"
           x="237.11926"
           y="99.842964" /><rect
           style="fill:#f9fdfd;fill-opacity:1;stroke:#000000;stroke-width:0.4;stroke-linecap:round;stroke-linejoin:miter;stroke-dasharray:none;stroke-dashoffset:0;stroke-opacity:1;paint-order:normal;stop-color:#000000"
           id="rect35726"
           width="6.9999971"
           height="22"
           x="264.11926"
           y="98.842964" /><rect
           style="fill:#b2df8a;fill-opacity:1;stroke:#000000;stroke-width:0.4;stroke-linecap:round;stroke-linejoin:miter;stroke-dasharray:none;stroke-dashoffset:0;stroke-opacity:1;paint-order:normal;stop-color:#000000"
           id="rect35728"
           width="25"
           height="6"
           x="238.11926"
           y="91.842964" /></g></g><rect
       style="fill:none;fill-opacity:1;stroke:url(#linearGradient41071);stroke-width:0.4;stroke-dasharray:none;stroke-opacity:1;paint-order:stroke fill markers;stop-color:#000000"
       id="rect35734"
       width="40"
       height="13"
       x="130"
       y="206" /><text
       xml:space="preserve"
       transform="matrix(0.26458333,0,0,0.26458333,80,-85.561638)"
       id="text35738"
       style="font-size:21.3333px;line-height:1.1;font-family:'Open Sans';-inkscape-font-specification:'Open Sans';letter-spacing:1px;white-space:pre;shape-inside:url(#rect35830);display:inline;fill:#1f78b4;fill-opacity:1"
       x="60.748772"
       y="0"><tspan
         x="214.99975"
         y="1117.1441"
         id="tspan54588"><tspan
           style="text-align:center;letter-spacing:0px;baseline-shift:baseline;text-anchor:middle;white-space:normal;opacity:1;vector-effect:none;stroke-width:0.999999;stop-color:#000000;stop-opacity:1"
           id="tspan54586">normalize</tspan></tspan></text><g
       id="g35820"
       transform="translate(-107.29741,84.028952)"><g
         id="g35764"
         transform="translate(159.60364,-74.262669)"><g
           id="g35762"
           transform="translate(-0.46248577,0.04305584)"><g
             id="g35756"
             transform="matrix(0.49733597,0,0,0.50299677,7.5719963,82.025635)"
             style="stroke-width:1.99937"><path
               style="fill:#ebf2f2;fill-opacity:1;stroke:#5d666e;stroke-width:0.799747;stroke-linecap:butt;stroke-linejoin:miter;stroke-dasharray:none;stroke-opacity:1;paint-order:normal"
               d="m 107.95454,148.2924 v 21.46171 c 0,7.67544 0.66279,9.49837 1.45068,12.42895 0.7879,2.93058 3.85029,15.17427 4.4969,17.6513 0.64661,2.47702 1.85443,2.43216 2.50276,2.43216 0.64833,0 1.85615,0.0449 2.50276,-2.43216 0.64661,-2.47703 3.709,-14.72072 4.4969,-17.6513 0.78789,-2.93058 1.45068,-4.75351 1.45068,-12.42895 V 148.2924"
               id="path35740"
               sodipodi:nodetypes="cssscsssc" /><path
               style="mix-blend-mode:darken;fill:#c6e7f5;fill-opacity:1;stroke:#2b96b8;stroke-width:0.799747;stroke-linecap:butt;stroke-linejoin:miter;stroke-dasharray:none;stroke-opacity:1"
               d="m 109.14787,163.48091 v 11.2781 c 0,0.59761 0.18805,2.92692 0.58963,4.4504 1.85921,7.05419 5.23358,20.5324 5.44904,20.98515 0.26243,0.55146 0.81793,0.78739 1.21834,0.78739 0.40041,0 0.95591,-0.23593 1.21834,-0.78739 0.21546,-0.45275 3.58983,-13.93096 5.44904,-20.98515 0.40158,-1.52348 0.57783,-3.8529 0.58963,-4.4504 v -11.2781 z"
               id="path35742"
               sodipodi:nodetypes="csscsscccc" /><path
               style="fill:none;stroke:#4c4e4e;stroke-width:0.799747;stroke-linecap:round;stroke-linejoin:round;stroke-dasharray:none;stroke-opacity:0.581033"
               d="m 123.38545,152.20242 h -3.74953"
               id="path35744" /><path
               style="fill:none;stroke:#4c4e4e;stroke-width:0.799747;stroke-linecap:round;stroke-linejoin:round;stroke-dasharray:none;stroke-opacity:0.581033"
               d="m 123.38545,163.48071 -3.74953,2e-4"
               id="path35746"
               sodipodi:nodetypes="cc" /><path
               style="fill:none;stroke:#4c4e4e;stroke-width:0.799747;stroke-linecap:round;stroke-linejoin:round;stroke-dasharray:none;stroke-opacity:0.581033"
               d="m 123.38545,174.75901 h -3.74953"
               id="path35748" /><path
               style="fill:none;fill-opacity:1;stroke:#5d666e;stroke-width:0.799747;stroke-linecap:butt;stroke-linejoin:miter;stroke-dasharray:none;stroke-opacity:1;paint-order:normal"
               d="m 107.95454,148.2924 v 21.46171 c 0,7.67544 0.66279,9.49837 1.45068,12.42895 0.7879,2.93058 3.85029,15.17427 4.4969,17.6513 0.64661,2.47702 1.85443,2.43216 2.50276,2.43216 0.64833,0 1.85615,0.0449 2.50276,-2.43216 0.64661,-2.47703 3.709,-14.72072 4.4969,-17.6513 0.78789,-2.93058 1.45068,-4.75351 1.45068,-12.42895 V 148.2924"
               id="path35750"
               sodipodi:nodetypes="cssscsssc" /><rect
               style="opacity:1;fill:#ebf2f2;fill-opacity:1;stroke:#5d666e;stroke-width:0.799747;stroke-dasharray:none;stroke-opacity:1;paint-order:normal;stop-color:#000000"
               id="rect35752"
               width="18.374931"
               height="2.4220874"
               x="107.21741"
               y="146.26523"
               rx="0.3160165"
               ry="0.20355481" /><rect
               style="opacity:1;fill:#ebf2f2;fill-opacity:1;stroke:#5d666e;stroke-width:0.799747;stroke-dasharray:none;stroke-opacity:1;paint-order:normal;stop-color:#000000"
               id="rect35754"
               width="21.769926"
               height="2.4251316"
               x="105.51992"
               y="144.34386"
               rx="0.9117378"
               ry="1.0386839" /></g><path
             style="fill:#e5f3f7;fill-opacity:1;stroke:#204959;stroke-width:0.4;stroke-linecap:butt;stroke-linejoin:miter;stroke-dasharray:none;stroke-opacity:1"
             d="m 67.495023,173.55825 c -0.326328,-0.43135 -0.99899,-0.5431 -1.456896,-0.26735 -0.589796,0.43207 -0.396398,1.51127 0.311742,1.70776 0.40895,0.14807 0.891442,-0.0446 1.089776,-0.42997 0.165335,-0.30026 0.260267,-0.70504 0.05538,-1.01044 z"
             id="path35758"
             sodipodi:nodetypes="zcccz" /><path
             style="fill:#e5f3f7;fill-opacity:1;stroke:#204959;stroke-width:0.4;stroke-linecap:butt;stroke-linejoin:miter;stroke-dasharray:none;stroke-opacity:1"
             d="m 65.044861,169.15184 c -0.536724,0.0669 -0.969834,0.5936 -0.95998,1.12804 0.07928,0.72681 1.110599,1.09892 1.634834,0.5839 0.332708,-0.28013 0.407097,-0.79431 0.172523,-1.15876 -0.177365,-0.29331 -0.480449,-0.57792 -0.847377,-0.55318 z"
             id="path35760"
             sodipodi:nodetypes="zcccz" /></g></g><g
         id="g35792"
         transform="translate(154.79556,-73.269617)"><g
           id="g35790"
           transform="translate(-0.46248577,0.04305584)"><g
             id="g35782"
             transform="matrix(0.49733597,0,0,0.50299677,7.5719963,82.025635)"
             style="stroke-width:1.99937"><path
               style="fill:#ebf2f2;fill-opacity:1;stroke:#5d666e;stroke-width:0.799747;stroke-linecap:butt;stroke-linejoin:miter;stroke-dasharray:none;stroke-opacity:1;paint-order:normal"
               d="m 107.95454,148.2924 v 21.46171 c 0,7.67544 0.66279,9.49837 1.45068,12.42895 0.7879,2.93058 3.85029,15.17427 4.4969,17.6513 0.64661,2.47702 1.85443,2.43216 2.50276,2.43216 0.64833,0 1.85615,0.0449 2.50276,-2.43216 0.64661,-2.47703 3.709,-14.72072 4.4969,-17.6513 0.78789,-2.93058 1.45068,-4.75351 1.45068,-12.42895 V 148.2924"
               id="path35766"
               sodipodi:nodetypes="cssscsssc" /><path
               style="mix-blend-mode:darken;fill:#c6e7f5;fill-opacity:1;stroke:#2b96b8;stroke-width:0.799747;stroke-linecap:butt;stroke-linejoin:miter;stroke-dasharray:none;stroke-opacity:1"
               d="m 109.14787,163.48091 v 11.2781 c 0,0.59761 0.18805,2.92692 0.58963,4.4504 1.85921,7.05419 5.23358,20.5324 5.44904,20.98515 0.26243,0.55146 0.81793,0.78739 1.21834,0.78739 0.40041,0 0.95591,-0.23593 1.21834,-0.78739 0.21546,-0.45275 3.58983,-13.93096 5.44904,-20.98515 0.40158,-1.52348 0.57783,-3.8529 0.58963,-4.4504 v -11.2781 z"
               id="path35768"
               sodipodi:nodetypes="csscsscccc" /><path
               style="fill:none;stroke:#4c4e4e;stroke-width:0.799747;stroke-linecap:round;stroke-linejoin:round;stroke-dasharray:none;stroke-opacity:0.581033"
               d="m 123.38545,152.20242 h -3.74953"
               id="path35770" /><path
               style="fill:none;stroke:#4c4e4e;stroke-width:0.799747;stroke-linecap:round;stroke-linejoin:round;stroke-dasharray:none;stroke-opacity:0.581033"
               d="m 123.38545,163.48071 -3.74953,2e-4"
               id="path35772"
               sodipodi:nodetypes="cc" /><path
               style="fill:none;stroke:#4c4e4e;stroke-width:0.799747;stroke-linecap:round;stroke-linejoin:round;stroke-dasharray:none;stroke-opacity:0.581033"
               d="m 123.38545,174.75901 h -3.74953"
               id="path35774" /><path
               style="fill:none;fill-opacity:1;stroke:#5d666e;stroke-width:0.799747;stroke-linecap:butt;stroke-linejoin:miter;stroke-dasharray:none;stroke-opacity:1;paint-order:normal"
               d="m 107.95454,148.2924 v 21.46171 c 0,7.67544 0.66279,9.49837 1.45068,12.42895 0.7879,2.93058 3.85029,15.17427 4.4969,17.6513 0.64661,2.47702 1.85443,2.43216 2.50276,2.43216 0.64833,0 1.85615,0.0449 2.50276,-2.43216 0.64661,-2.47703 3.709,-14.72072 4.4969,-17.6513 0.78789,-2.93058 1.45068,-4.75351 1.45068,-12.42895 V 148.2924"
               id="path35776"
               sodipodi:nodetypes="cssscsssc" /><rect
               style="opacity:1;fill:#ebf2f2;fill-opacity:1;stroke:#5d666e;stroke-width:0.799747;stroke-dasharray:none;stroke-opacity:1;paint-order:normal;stop-color:#000000"
               id="rect35778"
               width="18.374931"
               height="2.4220874"
               x="107.21741"
               y="146.26523"
               rx="0.3160165"
               ry="0.20355481" /><rect
               style="opacity:1;fill:#ebf2f2;fill-opacity:1;stroke:#5d666e;stroke-width:0.799747;stroke-dasharray:none;stroke-opacity:1;paint-order:normal;stop-color:#000000"
               id="rect35780"
               width="21.769926"
               height="2.4251316"
               x="105.51992"
               y="144.34386"
               rx="0.9117378"
               ry="1.0386839" /></g><path
             style="fill:#e5f3f7;fill-opacity:1;stroke:#204959;stroke-width:0.4;stroke-linecap:butt;stroke-linejoin:miter;stroke-dasharray:none;stroke-opacity:1"
             d="m 66.311921,166.94087 c -0.326328,-0.43135 -0.99899,-0.5431 -1.456896,-0.26735 -0.589796,0.43207 -0.396398,1.51127 0.311742,1.70776 0.40895,0.14807 0.891442,-0.0446 1.089776,-0.42997 0.165335,-0.30026 0.260267,-0.70504 0.05538,-1.01044 z"
             id="path35784"
             sodipodi:nodetypes="zcccz" /><path
             style="fill:#e5f3f7;fill-opacity:1;stroke:#204959;stroke-width:0.4;stroke-linecap:butt;stroke-linejoin:miter;stroke-dasharray:none;stroke-opacity:1"
             d="m 66.859445,171.23952 c -0.536724,0.0669 -0.969834,0.5936 -0.95998,1.12804 0.07928,0.72681 1.110599,1.09892 1.634834,0.5839 0.332708,-0.28013 0.407097,-0.79431 0.172523,-1.15876 -0.177365,-0.29331 -0.480449,-0.57792 -0.847377,-0.55318 z"
             id="path35786"
             sodipodi:nodetypes="zcccz" /><path
             style="fill:#e5f3f7;fill-opacity:1;stroke:#204959;stroke-width:0.4;stroke-linecap:butt;stroke-linejoin:miter;stroke-dasharray:none;stroke-opacity:1"
             d="m 66.084456,175.48314 c -0.22671,-0.49108 -0.86005,-0.74381 -1.366267,-0.57215 -0.668424,0.29622 -0.709822,1.39184 -0.05994,1.73494 0.367926,0.23195 0.880418,0.1467 1.156437,-0.18746 0.225608,-0.25805 0.404755,-0.63324 0.269771,-0.97533 z"
             id="path35788"
             sodipodi:nodetypes="zcccz" /></g></g><g
         id="g35818"
         transform="translate(149.98749,-72.276564)"><g
           id="g35816"
           transform="translate(-0.46248577,0.04305584)"><g
             id="g35810"
             transform="matrix(0.49733597,0,0,0.50299677,7.5719963,82.025635)"
             style="stroke-width:1.99937"><path
               style="fill:#ebf2f2;fill-opacity:1;stroke:#5d666e;stroke-width:0.799747;stroke-linecap:butt;stroke-linejoin:miter;stroke-dasharray:none;stroke-opacity:1;paint-order:normal"
               d="m 107.95454,148.2924 v 21.46171 c 0,7.67544 0.66279,9.49837 1.45068,12.42895 0.7879,2.93058 3.85029,15.17427 4.4969,17.6513 0.64661,2.47702 1.85443,2.43216 2.50276,2.43216 0.64833,0 1.85615,0.0449 2.50276,-2.43216 0.64661,-2.47703 3.709,-14.72072 4.4969,-17.6513 0.78789,-2.93058 1.45068,-4.75351 1.45068,-12.42895 V 148.2924"
               id="path35794"
               sodipodi:nodetypes="cssscsssc" /><path
               style="mix-blend-mode:darken;fill:#c6e7f5;fill-opacity:1;stroke:#2b96b8;stroke-width:0.799747;stroke-linecap:butt;stroke-linejoin:miter;stroke-dasharray:none;stroke-opacity:1"
               d="m 109.14787,163.48091 v 11.2781 c 0,0.59761 0.18805,2.92692 0.58963,4.4504 1.85921,7.05419 5.23358,20.5324 5.44904,20.98515 0.26243,0.55146 0.81793,0.78739 1.21834,0.78739 0.40041,0 0.95591,-0.23593 1.21834,-0.78739 0.21546,-0.45275 3.58983,-13.93096 5.44904,-20.98515 0.40158,-1.52348 0.57783,-3.8529 0.58963,-4.4504 v -11.2781 z"
               id="path35796"
               sodipodi:nodetypes="csscsscccc" /><path
               style="fill:none;stroke:#4c4e4e;stroke-width:0.799747;stroke-linecap:round;stroke-linejoin:round;stroke-dasharray:none;stroke-opacity:0.581033"
               d="m 123.38545,152.20242 h -3.74953"
               id="path35798" /><path
               style="fill:none;stroke:#4c4e4e;stroke-width:0.799747;stroke-linecap:round;stroke-linejoin:round;stroke-dasharray:none;stroke-opacity:0.581033"
               d="m 123.38545,163.48071 -3.74953,2e-4"
               id="path35800"
               sodipodi:nodetypes="cc" /><path
               style="fill:none;stroke:#4c4e4e;stroke-width:0.799747;stroke-linecap:round;stroke-linejoin:round;stroke-dasharray:none;stroke-opacity:0.581033"
               d="m 123.38545,174.75901 h -3.74953"
               id="path35802" /><path
               style="fill:none;fill-opacity:1;stroke:#5d666e;stroke-width:0.799747;stroke-linecap:butt;stroke-linejoin:miter;stroke-dasharray:none;stroke-opacity:1;paint-order:normal"
               d="m 107.95454,148.2924 v 21.46171 c 0,7.67544 0.66279,9.49837 1.45068,12.42895 0.7879,2.93058 3.85029,15.17427 4.4969,17.6513 0.64661,2.47702 1.85443,2.43216 2.50276,2.43216 0.64833,0 1.85615,0.0449 2.50276,-2.43216 0.64661,-2.47703 3.709,-14.72072 4.4969,-17.6513 0.78789,-2.93058 1.45068,-4.75351 1.45068,-12.42895 V 148.2924"
               id="path35804"
               sodipodi:nodetypes="cssscsssc" /><rect
               style="opacity:1;fill:#ebf2f2;fill-opacity:1;stroke:#5d666e;stroke-width:0.799747;stroke-dasharray:none;stroke-opacity:1;paint-order:normal;stop-color:#000000"
               id="rect35806"
               width="18.374931"
               height="2.4220874"
               x="107.21741"
               y="146.26523"
               rx="0.3160165"
               ry="0.20355481" /><rect
               style="opacity:1;fill:#ebf2f2;fill-opacity:1;stroke:#5d666e;stroke-width:0.799747;stroke-dasharray:none;stroke-opacity:1;paint-order:normal;stop-color:#000000"
               id="rect35808"
               width="21.769926"
               height="2.4251316"
               x="105.51992"
               y="144.34386"
               rx="0.9117378"
               ry="1.0386839" /></g><path
             style="fill:#e5f3f7;fill-opacity:1;stroke:#204959;stroke-width:0.4;stroke-linecap:butt;stroke-linejoin:miter;stroke-dasharray:none;stroke-opacity:1"
             d="m 67.685002,166.91668 c -0.326328,-0.43135 -0.99899,-0.5431 -1.456896,-0.26735 -0.589796,0.43207 -0.396398,1.51127 0.311742,1.70776 0.40895,0.14807 0.891442,-0.0446 1.089776,-0.42997 0.165335,-0.30026 0.260267,-0.70504 0.05538,-1.01044 z"
             id="path35812"
             sodipodi:nodetypes="zcccz" /><path
             style="fill:#e5f3f7;fill-opacity:1;stroke:#204959;stroke-width:0.4;stroke-linecap:butt;stroke-linejoin:miter;stroke-dasharray:none;stroke-opacity:1"
             d="m 65.709313,173.82125 c -0.536724,0.0669 -0.969834,0.5936 -0.95998,1.12804 0.07928,0.72681 1.110599,1.09892 1.634834,0.5839 0.332708,-0.28013 0.407097,-0.79431 0.172523,-1.15876 -0.177365,-0.29331 -0.480449,-0.57792 -0.847377,-0.55318 z"
             id="path35814"
             sodipodi:nodetypes="zcccz" /></g></g></g><text
       xml:space="preserve"
       transform="matrix(0.26458333,0,0,0.26458333,-6.550293e-8,92.662962)"
       id="text35824"
       style="font-size:21.3333px;line-height:1.1;font-family:'Open Sans';-inkscape-font-specification:'Open Sans';letter-spacing:1px;white-space:pre;shape-inside:url(#rect35832);display:inline;fill:#33a02c;fill-opacity:1"
       x="67.286362"
       y="0"><tspan
         x="498.78298"
         y="304.54649"
         id="tspan54592"><tspan
           style="text-align:center;text-anchor:middle"
           id="tspan54590">+ feature QC</tspan></tspan></text></g></svg>
